<?xml version="1.0" encoding="utf-8"?>
<!-- Generator: Adobe Illustrator 15.0.0, SVG Export Plug-In . SVG Version: 6.00 Build 0)  -->
<!DOCTYPE svg PUBLIC "-//W3C//DTD SVG 1.1//EN" "http://www.w3.org/Graphics/SVG/1.1/DTD/svg11.dtd">
<svg version="1.1" id="Layer_1" xmlns="http://www.w3.org/2000/svg" xmlns:xlink="http://www.w3.org/1999/xlink" x="0px" y="0px"
	 width="96px" height="96px" viewBox="0 0 96 96" enable-background="new 0 0 96 96" xml:space="preserve">
<g id="DO_NOT_EDIT_-_BOUNDING_BOX">
	<rect id="BOUNDING_BOX" fill="none" width="96" height="96"/>
</g>
<g id="DO_NOT_EDIT_-_SHADOW">
	<path id="SHADOW" opacity="0.4" enable-background="new    " d="M88.023,49c0,29.633-10.364,40-40,40c-29.635,0-40-10.367-40-40
		c0-29.634,10.366-40,40-40C77.659,9,88.023,19.365,88.023,49z"/>
</g>
<g id="GRAY_BACKGROUNDS">
	<g id="GRAY5">
		
			<linearGradient id="GRAY_5_1_" gradientUnits="userSpaceOnUse" x1="-1151.4502" y1="-1379.0703" x2="-1151.4502" y2="-1459.0498" gradientTransform="matrix(1 0 0 -1 1199.4502 -1371.0605)">
			<stop  offset="0.0364" style="stop-color:#DDDDDD"/>
			<stop  offset="0.4616" style="stop-color:#BFBFC1"/>
			<stop  offset="1" style="stop-color:#949499"/>
		</linearGradient>
		<path id="GRAY_5" fill="url(#GRAY_5_1_)" d="M8,47.989c0,29.633,10.365,40,40,40c29.637,0,40-10.367,40-40
			c0-28.985-9.926-39.53-38.091-39.979h-3.817C17.928,8.459,8,19.004,8,47.989z"/>
		
			<linearGradient id="HIGHLIGHT_GRA5_1_" gradientUnits="userSpaceOnUse" x1="-1151.4502" y1="-1379.0605" x2="-1151.4502" y2="-1459.0605" gradientTransform="matrix(1 0 0 -1 1199.4502 -1371.0605)">
			<stop  offset="0.0364" style="stop-color:#FFFFFF"/>
			<stop  offset="0.3366" style="stop-color:#E1E1E3"/>
			<stop  offset="0.9874" style="stop-color:#96969A"/>
			<stop  offset="1" style="stop-color:#949499"/>
		</linearGradient>
		<path id="HIGHLIGHT_GRA5" opacity="0.25" fill="url(#HIGHLIGHT_GRA5_1_)" enable-background="new    " d="M48,8
			C18.365,8,8,18.365,8,48c0,29.633,10.365,40,40,40c29.637,0,40-10.367,40-40C88,18.365,77.637,8,48,8z M48,87.023
			C18.842,87.023,9,77.176,9,48S18.842,8.977,48,8.977S87,18.824,87,48S77.158,87.023,48,87.023z"/>
	</g>
	<g id="GRAY4" display="none">
		
			<linearGradient id="GRAY_4_1_" gradientUnits="userSpaceOnUse" x1="-1151.4502" y1="-1379.0703" x2="-1151.4502" y2="-1459.0498" gradientTransform="matrix(1 0 0 -1 1199.4502 -1371.0605)">
			<stop  offset="0.0364" style="stop-color:#E0E0E0"/>
			<stop  offset="0.3262" style="stop-color:#D6D6D6"/>
			<stop  offset="0.8148" style="stop-color:#BCBCBC"/>
			<stop  offset="1" style="stop-color:#B0B0B0"/>
		</linearGradient>
		<path id="GRAY_4" display="inline" fill="url(#GRAY_4_1_)" d="M8,47.989c0,29.633,10.365,40,40,40c29.637,0,40-10.367,40-40
			c0-28.985-9.926-39.53-38.091-39.979h-3.817C17.928,8.459,8,19.004,8,47.989z"/>
		
			<linearGradient id="HIGHLIGHT_GRA4_2_" gradientUnits="userSpaceOnUse" x1="-1151.4502" y1="-1379.0605" x2="-1151.4502" y2="-1459.0605" gradientTransform="matrix(1 0 0 -1 1199.4502 -1371.0605)">
			<stop  offset="0.0364" style="stop-color:#E8E8E8"/>
			<stop  offset="0.2978" style="stop-color:#DEDEDE"/>
			<stop  offset="0.7385" style="stop-color:#C4C4C4"/>
			<stop  offset="1" style="stop-color:#B1B1B1"/>
		</linearGradient>
		<path id="HIGHLIGHT_GRA4_1_" display="inline" fill="url(#HIGHLIGHT_GRA4_2_)" d="M48,8C18.365,8,8,18.365,8,48
			c0,29.633,10.365,40,40,40c29.637,0,40-10.367,40-40C88,18.365,77.637,8,48,8z M48,87.023C18.842,87.023,9,77.176,9,48
			S18.842,8.977,48,8.977S87,18.824,87,48S77.158,87.023,48,87.023z"/>
	</g>
	<g id="GRAY3" display="none">
		
			<linearGradient id="GRAY_3_1_" gradientUnits="userSpaceOnUse" x1="-1151.4502" y1="-1379.0703" x2="-1151.4502" y2="-1459.0498" gradientTransform="matrix(1 0 0 -1 1199.4502 -1371.0605)">
			<stop  offset="0.0364" style="stop-color:#E9E9E9"/>
			<stop  offset="0.3218" style="stop-color:#DFDFDF"/>
			<stop  offset="0.8028" style="stop-color:#C5C5C5"/>
			<stop  offset="1" style="stop-color:#B8B8B8"/>
		</linearGradient>
		<path id="GRAY_3" display="inline" fill="url(#GRAY_3_1_)" d="M8,47.989c0,29.633,10.365,40,40,40c29.637,0,40-10.367,40-40
			c0-28.985-9.926-39.53-38.091-39.979h-3.817C17.928,8.459,8,19.004,8,47.989z"/>
		
			<linearGradient id="HIGHLIGHT_GRA3_2_" gradientUnits="userSpaceOnUse" x1="-1151.4502" y1="-1379.0605" x2="-1151.4502" y2="-1459.0605" gradientTransform="matrix(1 0 0 -1 1199.4502 -1371.0605)">
			<stop  offset="0.0364" style="stop-color:#EFEFEF"/>
			<stop  offset="0.3133" style="stop-color:#E5E5E5"/>
			<stop  offset="0.7799" style="stop-color:#CBCBCB"/>
			<stop  offset="1" style="stop-color:#BCBCBC"/>
		</linearGradient>
		<path id="HIGHLIGHT_GRA3_1_" display="inline" fill="url(#HIGHLIGHT_GRA3_2_)" d="M48,8C18.365,8,8,18.365,8,48
			c0,29.633,10.365,40,40,40c29.637,0,40-10.367,40-40C88,18.365,77.637,8,48,8z M48,87.023C18.842,87.023,9,77.176,9,48
			S18.842,8.977,48,8.977S87,18.824,87,48S77.158,87.023,48,87.023z"/>
	</g>
	<g id="GRAY2" display="none">
		
			<linearGradient id="GRAY_2_1_" gradientUnits="userSpaceOnUse" x1="-1151.4502" y1="-1379.0703" x2="-1151.4502" y2="-1459.0498" gradientTransform="matrix(1 0 0 -1 1199.4502 -1371.0605)">
			<stop  offset="0.0364" style="stop-color:#EEEEEE"/>
			<stop  offset="0.3262" style="stop-color:#E4E4E4"/>
			<stop  offset="0.8148" style="stop-color:#CACACA"/>
			<stop  offset="1" style="stop-color:#BEBEBE"/>
		</linearGradient>
		<path id="GRAY_2" display="inline" fill="url(#GRAY_2_1_)" d="M8,47.989c0,29.633,10.365,40,40,40c29.637,0,40-10.367,40-40
			c0-28.985-9.926-39.53-38.091-39.979h-3.817C17.928,8.459,8,19.004,8,47.989z"/>
		
			<linearGradient id="HIGHLIGHT_GRA2_1_" gradientUnits="userSpaceOnUse" x1="-1151.4502" y1="-1379.0605" x2="-1151.4502" y2="-1459.0605" gradientTransform="matrix(1 0 0 -1 1199.4502 -1371.0605)">
			<stop  offset="0.0364" style="stop-color:#F2F2F2"/>
			<stop  offset="0.3133" style="stop-color:#E8E8E8"/>
			<stop  offset="0.7799" style="stop-color:#CECECE"/>
			<stop  offset="1" style="stop-color:#BFBFBF"/>
		</linearGradient>
		<path id="HIGHLIGHT_GRA2" display="inline" fill="url(#HIGHLIGHT_GRA2_1_)" d="M48,8C18.365,8,8,18.365,8,48
			c0,29.633,10.365,40,40,40c29.637,0,40-10.367,40-40C88,18.365,77.637,8,48,8z M48,87.023C18.842,87.023,9,77.176,9,48
			S18.842,8.977,48,8.977S87,18.824,87,48S77.158,87.023,48,87.023z"/>
	</g>
	<g id="GRAY1" display="none">
		
			<linearGradient id="GRAY_1_1_" gradientUnits="userSpaceOnUse" x1="-1151.4502" y1="-1379.0703" x2="-1151.4502" y2="-1459.0498" gradientTransform="matrix(1 0 0 -1 1199.4502 -1371.0605)">
			<stop  offset="0.0364" style="stop-color:#F9F9F9"/>
			<stop  offset="0.2102" style="stop-color:#EFEFEF"/>
			<stop  offset="0.5042" style="stop-color:#D6D6D5"/>
			<stop  offset="0.8303" style="stop-color:#B2B2B0"/>
			<stop  offset="1" style="stop-color:#ABABA8"/>
		</linearGradient>
		<path id="GRAY_1" display="inline" fill="url(#GRAY_1_1_)" d="M8,47.989c0,29.633,10.365,40,40,40c29.637,0,40-10.367,40-40
			c0-28.985-9.926-39.53-38.091-39.979h-3.817C17.928,8.459,8,19.004,8,47.989z"/>
		
			<linearGradient id="HIGHLIGHT_GRA1_1_" gradientUnits="userSpaceOnUse" x1="-1151.4502" y1="-1379.0605" x2="-1151.4502" y2="-1459.0605" gradientTransform="matrix(1 0 0 -1 1199.4502 -1371.0605)">
			<stop  offset="0.0364" style="stop-color:#FCFCFC"/>
			<stop  offset="0.2262" style="stop-color:#F3F3F2"/>
			<stop  offset="0.5471" style="stop-color:#DAD9D8"/>
			<stop  offset="0.9576" style="stop-color:#B2B0AD"/>
			<stop  offset="1" style="stop-color:#ADABA8"/>
		</linearGradient>
		<path id="HIGHLIGHT_GRA1" display="inline" fill="url(#HIGHLIGHT_GRA1_1_)" d="M48,8C18.365,8,8,18.365,8,48
			c0,29.633,10.365,40,40,40c29.637,0,40-10.367,40-40C88,18.365,77.637,8,48,8z M48,87.023C18.842,87.023,9,77.176,9,48
			S18.842,8.977,48,8.977S87,18.824,87,48S77.158,87.023,48,87.023z"/>
	</g>
</g>
<g id="ORANGE_BACKGROUNDS" display="none">
	<g id="ORANGE_5" display="inline">
		
			<linearGradient id="RED_x2F_ORANGE_5_2_" gradientUnits="userSpaceOnUse" x1="-1151.4502" y1="-1379.0703" x2="-1151.4502" y2="-1459.0498" gradientTransform="matrix(1 0 0 -1 1199.4502 -1371.0605)">
			<stop  offset="0" style="stop-color:#FFDB62"/>
			<stop  offset="0.1393" style="stop-color:#FAD15C"/>
			<stop  offset="0.3741" style="stop-color:#EDB74D"/>
			<stop  offset="0.4848" style="stop-color:#E6A844"/>
			<stop  offset="1" style="stop-color:#C96B25"/>
		</linearGradient>
		<path id="RED_x2F_ORANGE_5_1_" fill="url(#RED_x2F_ORANGE_5_2_)" d="M8,47.988c0,29.634,10.365,40.001,40,40.001
			c29.637,0,40-10.367,40-40.001C88,19.004,78.074,8.459,49.909,8.01h-3.817C17.928,8.459,8,19.004,8,47.988z"/>
		
			<linearGradient id="HIGHLIGHTS_RO5_1_" gradientUnits="userSpaceOnUse" x1="-1151.4502" y1="-1379.3164" x2="-1151.4502" y2="-1458.5645" gradientTransform="matrix(1 0 0 -1 1199.4502 -1371.0605)">
			<stop  offset="0" style="stop-color:#FFFFFF"/>
			<stop  offset="0.0958" style="stop-color:#FDF8F5"/>
			<stop  offset="0.2579" style="stop-color:#F6E6DB"/>
			<stop  offset="0.4666" style="stop-color:#EBC9AF"/>
			<stop  offset="0.7136" style="stop-color:#DCA073"/>
			<stop  offset="0.9904" style="stop-color:#CA6D28"/>
			<stop  offset="1" style="stop-color:#C96B25"/>
		</linearGradient>
		<path id="HIGHLIGHTS_RO5" opacity="0.25" fill="url(#HIGHLIGHTS_RO5_1_)" enable-background="new    " d="M48,8
			C18.365,8,8,18.365,8,48c0,29.633,10.365,40,40,40c29.637,0,40-10.367,40-40C88,18.365,77.637,8,48,8z M48,87.023
			C18.842,87.023,9,77.176,9,48S18.842,8.977,48,8.977S87,18.824,87,48S77.158,87.023,48,87.023z"/>
	</g>
	<g id="ORANGE_4" display="inline">
		
			<linearGradient id="RED_x2F_ORANGE_4_1_" gradientUnits="userSpaceOnUse" x1="-1151.4502" y1="-1379.0703" x2="-1151.4502" y2="-1459.0498" gradientTransform="matrix(1 0 0 -1 1199.4502 -1371.0605)">
			<stop  offset="0.0364" style="stop-color:#FBBF60"/>
			<stop  offset="0.2109" style="stop-color:#F8B556"/>
			<stop  offset="0.503" style="stop-color:#F19B3D"/>
			<stop  offset="1" style="stop-color:#C76121"/>
		</linearGradient>
		<path id="RED_x2F_ORANGE_4_2_" fill="url(#RED_x2F_ORANGE_4_1_)" d="M8,47.988c0,29.634,10.365,40.001,40,40.001
			c29.637,0,40-10.367,40-40.001C88,19.004,78.074,8.459,49.909,8.01h-3.817C17.928,8.459,8,19.004,8,47.988z"/>
		
			<linearGradient id="HIGHLIGHTS_RO4_2_" gradientUnits="userSpaceOnUse" x1="-1151.4502" y1="-1379.3164" x2="-1151.4502" y2="-1458.5645" gradientTransform="matrix(1 0 0 -1 1199.4502 -1371.0605)">
			<stop  offset="0.0364" style="stop-color:#FFFFFF"/>
			<stop  offset="0.1274" style="stop-color:#FDF8F5"/>
			<stop  offset="0.2815" style="stop-color:#F6E5DB"/>
			<stop  offset="0.4799" style="stop-color:#EBC6AF"/>
			<stop  offset="0.7147" style="stop-color:#DC9C73"/>
			<stop  offset="0.9778" style="stop-color:#C96628"/>
			<stop  offset="1" style="stop-color:#C76121"/>
		</linearGradient>
		<path id="HIGHLIGHTS_RO4_1_" opacity="0.25" fill="url(#HIGHLIGHTS_RO4_2_)" enable-background="new    " d="M48,8
			C18.365,8,8,18.365,8,48c0,29.633,10.365,40,40,40c29.637,0,40-10.367,40-40C88,18.365,77.637,8,48,8z M48,87.023
			C18.842,87.023,9,77.176,9,48S18.842,8.977,48,8.977S87,18.824,87,48S77.158,87.023,48,87.023z"/>
	</g>
	<g id="ORANGE_3" display="inline">
		
			<linearGradient id="RED_x2F_ORANGE_3_2_" gradientUnits="userSpaceOnUse" x1="-1151.4502" y1="-1379.0703" x2="-1151.4502" y2="-1459.0498" gradientTransform="matrix(1 0 0 -1 1199.4502 -1371.0605)">
			<stop  offset="0.0364" style="stop-color:#F6B85E"/>
			<stop  offset="0.2008" style="stop-color:#F4AE5A"/>
			<stop  offset="0.478" style="stop-color:#EE9451"/>
			<stop  offset="0.5394" style="stop-color:#EC8D4E"/>
			<stop  offset="0.8228" style="stop-color:#D46A3B"/>
			<stop  offset="1" style="stop-color:#C95932"/>
		</linearGradient>
		<path id="RED_x2F_ORANGE_3_1_" fill="url(#RED_x2F_ORANGE_3_2_)" d="M8,47.988c0,29.634,10.365,40.001,40,40.001
			c29.637,0,40-10.367,40-40.001C88,19.004,78.074,8.459,49.909,8.01h-3.817C17.928,8.459,8,19.004,8,47.988z"/>
		
			<linearGradient id="HIGHLIGHTS_RO3_2_" gradientUnits="userSpaceOnUse" x1="-1151.4502" y1="-1379.3164" x2="-1151.4502" y2="-1458.5645" gradientTransform="matrix(1 0 0 -1 1199.4502 -1371.0605)">
			<stop  offset="0.0364" style="stop-color:#FFFFFF"/>
			<stop  offset="0.133" style="stop-color:#FCF7F5"/>
			<stop  offset="0.2967" style="stop-color:#F5E2DB"/>
			<stop  offset="0.5073" style="stop-color:#EABFAF"/>
			<stop  offset="0.7537" style="stop-color:#DA8F74"/>
			<stop  offset="1" style="stop-color:#C95932"/>
		</linearGradient>
		<path id="HIGHLIGHTS_RO3_1_" opacity="0.25" fill="url(#HIGHLIGHTS_RO3_2_)" enable-background="new    " d="M48,8
			C18.365,8,8,18.365,8,48c0,29.633,10.365,40,40,40c29.637,0,40-10.367,40-40C88,18.365,77.637,8,48,8z M48,87.023
			C18.842,87.023,9,77.176,9,48S18.842,8.977,48,8.977S87,18.824,87,48S77.158,87.023,48,87.023z"/>
	</g>
	<g id="ORANGE_2" display="inline">
		
			<linearGradient id="RED_x2F_ORANGE_2_1_" gradientUnits="userSpaceOnUse" x1="-1151.4502" y1="-1379.0703" x2="-1151.4502" y2="-1459.0498" gradientTransform="matrix(1 0 0 -1 1199.4502 -1371.0605)">
			<stop  offset="0.0364" style="stop-color:#FAA824"/>
			<stop  offset="0.3742" style="stop-color:#EA8A20"/>
			<stop  offset="1" style="stop-color:#C74A17"/>
		</linearGradient>
		<path id="RED_x2F_ORANGE_2_2_" fill="url(#RED_x2F_ORANGE_2_1_)" d="M8,47.988c0,29.634,10.365,40.001,40,40.001
			c29.637,0,40-10.367,40-40.001C88,19.004,78.074,8.459,49.909,8.01h-3.817C17.928,8.459,8,19.004,8,47.988z"/>
		
			<linearGradient id="HIGHLIGHTS_RO2_1_" gradientUnits="userSpaceOnUse" x1="-1151.4502" y1="-1379.3164" x2="-1151.4502" y2="-1458.5645" gradientTransform="matrix(1 0 0 -1 1199.4502 -1371.0605)">
			<stop  offset="0.0364" style="stop-color:#FFFFFF"/>
			<stop  offset="0.185" style="stop-color:#F8E8E1"/>
			<stop  offset="0.5097" style="stop-color:#E5AC95"/>
			<stop  offset="0.9833" style="stop-color:#C84D1B"/>
			<stop  offset="1" style="stop-color:#C74A17"/>
		</linearGradient>
		<path id="HIGHLIGHTS_RO2_2_" opacity="0.25" fill="url(#HIGHLIGHTS_RO2_1_)" enable-background="new    " d="M48,8
			C18.365,8,8,18.365,8,48c0,29.633,10.365,40,40,40c29.637,0,40-10.367,40-40C88,18.365,77.637,8,48,8z M48,87.023
			C18.842,87.023,9,77.176,9,48S18.842,8.977,48,8.977S87,18.824,87,48S77.158,87.023,48,87.023z"/>
	</g>
	<g id="ORANGE_1" display="inline">
		
			<linearGradient id="RED_x2F_ORANGE_1_2_" gradientUnits="userSpaceOnUse" x1="-1151.4502" y1="-1379.0703" x2="-1151.4502" y2="-1459.0498" gradientTransform="matrix(1 0 0 -1 1199.4502 -1371.0605)">
			<stop  offset="0.0364" style="stop-color:#FF8A36"/>
			<stop  offset="0.3489" style="stop-color:#EF7130"/>
			<stop  offset="1" style="stop-color:#C73321"/>
		</linearGradient>
		<path id="RED_x2F_ORANGE_1_1_" fill="url(#RED_x2F_ORANGE_1_2_)" d="M8,47.988c0,29.634,10.365,40.001,40,40.001
			c29.637,0,40-10.367,40-40.001C88,19.004,78.074,8.459,49.909,8.01h-3.817C17.928,8.459,8,19.004,8,47.988z"/>
		
			<linearGradient id="HIGHLIGHTS_RO1_2_" gradientUnits="userSpaceOnUse" x1="-1151.4502" y1="-1379.3164" x2="-1151.4502" y2="-1458.5645" gradientTransform="matrix(1 0 0 -1 1199.4502 -1371.0605)">
			<stop  offset="0.0364" style="stop-color:#FFFFFF"/>
			<stop  offset="0.1274" style="stop-color:#FCF7F5"/>
			<stop  offset="0.2815" style="stop-color:#F5E0DB"/>
			<stop  offset="0.4799" style="stop-color:#EABBAF"/>
			<stop  offset="0.7147" style="stop-color:#DA8873"/>
			<stop  offset="0.9778" style="stop-color:#C64828"/>
			<stop  offset="1" style="stop-color:#C44221"/>
		</linearGradient>
		<path id="HIGHLIGHTS_RO1_1_" opacity="0.25" fill="url(#HIGHLIGHTS_RO1_2_)" enable-background="new    " d="M48,8
			C18.365,8,8,18.365,8,48c0,29.633,10.365,40,40,40c29.637,0,40-10.367,40-40C88,18.365,77.637,8,48,8z M48,87.023
			C18.842,87.023,9,77.176,9,48S18.842,8.977,48,8.977S87,18.824,87,48S77.158,87.023,48,87.023z"/>
	</g>
</g>
<g id="GREEN_BACKGROUNDS" display="none">
	<g id="GREEN4" display="inline">
		
			<linearGradient id="GREEN_4_1_" gradientUnits="userSpaceOnUse" x1="-1151.4502" y1="-1379.0703" x2="-1151.4502" y2="-1459.0498" gradientTransform="matrix(1 0 0 -1 1199.4502 -1371.0605)">
			<stop  offset="0.0364" style="stop-color:#6BAB40"/>
			<stop  offset="0.6061" style="stop-color:#537734"/>
			<stop  offset="1" style="stop-color:#4F5C26"/>
		</linearGradient>
		<path id="GREEN_4_3_" fill="url(#GREEN_4_1_)" d="M8,47.989c0,29.633,10.365,40,40,40c29.637,0,40-10.367,40-40
			c0-28.985-9.926-39.53-38.091-39.979h-3.817C17.928,8.459,8,19.004,8,47.989z"/>
		
			<linearGradient id="HIGHLIGHT_GR4_1_" gradientUnits="userSpaceOnUse" x1="-1151.4502" y1="-1379.0605" x2="-1151.4502" y2="-1459.0605" gradientTransform="matrix(1 0 0 -1 1199.4502 -1371.0605)">
			<stop  offset="0.0364" style="stop-color:#FFFFFF"/>
			<stop  offset="0.8255" style="stop-color:#6F7A4E"/>
			<stop  offset="1" style="stop-color:#4F5C26"/>
		</linearGradient>
		<path id="HIGHLIGHT_GR4" opacity="0.25" fill="url(#HIGHLIGHT_GR4_1_)" enable-background="new    " d="M48,8
			C18.365,8,8,18.365,8,48c0,29.633,10.365,40,40,40c29.637,0,40-10.367,40-40C88,18.365,77.637,8,48,8z M48,87.023
			C18.842,87.023,9,77.176,9,48S18.842,8.977,48,8.977S87,18.824,87,48S77.158,87.023,48,87.023z"/>
	</g>
	<g id="GREEN3" display="inline">
		
			<linearGradient id="GREEN_3_1_" gradientUnits="userSpaceOnUse" x1="-1151.4502" y1="-1379.0703" x2="-1151.4502" y2="-1459.0498" gradientTransform="matrix(1 0 0 -1 1199.4502 -1371.0605)">
			<stop  offset="0.0364" style="stop-color:#70B83B"/>
			<stop  offset="0.2066" style="stop-color:#6AAE37"/>
			<stop  offset="0.4945" style="stop-color:#5B942B"/>
			<stop  offset="0.8626" style="stop-color:#426917"/>
			<stop  offset="1" style="stop-color:#38570F"/>
		</linearGradient>
		<path id="GREEN_3_2_" fill="url(#GREEN_3_1_)" d="M8,47.989c0,29.633,10.365,40,40,40c29.637,0,40-10.367,40-40
			c0-28.985-9.926-39.53-38.091-39.979h-3.817C17.928,8.459,8,19.004,8,47.989z"/>
		
			<linearGradient id="HIGHLIGHT_GR3_1_" gradientUnits="userSpaceOnUse" x1="-1151.4502" y1="-1379.0605" x2="-1151.4502" y2="-1459.0605" gradientTransform="matrix(1 0 0 -1 1199.4502 -1371.0605)">
			<stop  offset="0.0364" style="stop-color:#FFFFFF"/>
			<stop  offset="0.1222" style="stop-color:#F7F8F5"/>
			<stop  offset="0.2675" style="stop-color:#E1E5DB"/>
			<stop  offset="0.4545" style="stop-color:#BDC7AF"/>
			<stop  offset="0.6759" style="stop-color:#8B9D73"/>
			<stop  offset="0.9238" style="stop-color:#4D6828"/>
			<stop  offset="1" style="stop-color:#38570F"/>
		</linearGradient>
		<path id="HIGHLIGHT_GR3" opacity="0.25" fill="url(#HIGHLIGHT_GR3_1_)" enable-background="new    " d="M48,8
			C18.365,8,8,18.365,8,48c0,29.633,10.365,40,40,40c29.637,0,40-10.367,40-40C88,18.365,77.637,8,48,8z M48,87.023
			C18.842,87.023,9,77.176,9,48S18.842,8.977,48,8.977S87,18.824,87,48S77.158,87.023,48,87.023z"/>
	</g>
	<g id="GREEN2" display="inline">
		
			<linearGradient id="GREEN_2_1_" gradientUnits="userSpaceOnUse" x1="-1151.4502" y1="-1379.0703" x2="-1151.4502" y2="-1459.0498" gradientTransform="matrix(1 0 0 -1 1199.4502 -1371.0605)">
			<stop  offset="0.0364" style="stop-color:#75B561"/>
			<stop  offset="0.223" style="stop-color:#6EAB5E"/>
			<stop  offset="0.5376" style="stop-color:#5B9157"/>
			<stop  offset="0.6667" style="stop-color:#528454"/>
			<stop  offset="1" style="stop-color:#4B6145"/>
		</linearGradient>
		<path id="GREEN_2_2_" fill="url(#GREEN_2_1_)" d="M8,47.989c0,29.633,10.365,40,40,40c29.637,0,40-10.367,40-40
			c0-28.985-9.926-39.53-38.091-39.979h-3.817C17.928,8.459,8,19.004,8,47.989z"/>
		
			<linearGradient id="HIGHLIGHT_GR2_1_" gradientUnits="userSpaceOnUse" x1="-1151.4502" y1="-1379.0605" x2="-1151.4502" y2="-1459.0605" gradientTransform="matrix(1 0 0 -1 1199.4502 -1371.0605)">
			<stop  offset="0.0364" style="stop-color:#FFFFFF"/>
			<stop  offset="0.1404" style="stop-color:#F5F7F5"/>
			<stop  offset="0.3165" style="stop-color:#DCE0DB"/>
			<stop  offset="0.543" style="stop-color:#B2BBAF"/>
			<stop  offset="0.8084" style="stop-color:#798974"/>
			<stop  offset="1" style="stop-color:#4B6145"/>
		</linearGradient>
		<path id="HIGHLIGHT_GR2" opacity="0.25" fill="url(#HIGHLIGHT_GR2_1_)" enable-background="new    " d="M48,8
			C18.365,8,8,18.365,8,48c0,29.633,10.365,40,40,40c29.637,0,40-10.367,40-40C88,18.365,77.637,8,48,8z M48,87.023
			C18.842,87.023,9,77.176,9,48S18.842,8.977,48,8.977S87,18.824,87,48S77.158,87.023,48,87.023z"/>
	</g>
	<g id="GREEN1" display="inline">
		
			<linearGradient id="GREEN_1_1_" gradientUnits="userSpaceOnUse" x1="-1151.4502" y1="-1379.0703" x2="-1151.4502" y2="-1459.0498" gradientTransform="matrix(1 0 0 -1 1199.4502 -1371.0605)">
			<stop  offset="0.0364" style="stop-color:#9CD061"/>
			<stop  offset="0.219" style="stop-color:#94C957"/>
			<stop  offset="0.5269" style="stop-color:#7DB63D"/>
			<stop  offset="0.6909" style="stop-color:#6FAA2C"/>
			<stop  offset="1" style="stop-color:#4A8021"/>
		</linearGradient>
		<path id="GREEN_1_2_" fill="url(#GREEN_1_1_)" d="M8,47.989c0,29.633,10.365,40,40,40c29.637,0,40-10.367,40-40
			c0-28.985-9.926-39.53-38.091-39.979h-3.817C17.928,8.459,8,19.004,8,47.989z"/>
		
			<linearGradient id="HIGHLIGHT_GR1_1_" gradientUnits="userSpaceOnUse" x1="-1151.4502" y1="-1379.0605" x2="-1151.4502" y2="-1459.0605" gradientTransform="matrix(1 0 0 -1 1199.4502 -1371.0605)">
			<stop  offset="0.0364" style="stop-color:#FFFFFF"/>
			<stop  offset="0.1274" style="stop-color:#F7F9F5"/>
			<stop  offset="0.2815" style="stop-color:#E1EADB"/>
			<stop  offset="0.4799" style="stop-color:#BED1AF"/>
			<stop  offset="0.7147" style="stop-color:#8DAF73"/>
			<stop  offset="0.9778" style="stop-color:#4F8428"/>
			<stop  offset="1" style="stop-color:#4A8021"/>
		</linearGradient>
		<path id="HIGHLIGHT_GR1" opacity="0.25" fill="url(#HIGHLIGHT_GR1_1_)" enable-background="new    " d="M48,8
			C18.365,8,8,18.365,8,48c0,29.633,10.365,40,40,40c29.637,0,40-10.367,40-40C88,18.365,77.637,8,48,8z M48,87.023
			C18.842,87.023,9,77.176,9,48S18.842,8.977,48,8.977S87,18.824,87,48S77.158,87.023,48,87.023z"/>
	</g>
</g>
<g id="BLUE_BACKGROUNDS">
	<g id="BLUE_4_2_">
		
			<linearGradient id="BLUE_4_3_" gradientUnits="userSpaceOnUse" x1="-1154.1699" y1="703.1807" x2="-1154.1699" y2="783.1602" gradientTransform="matrix(1 0 0 1 1202.1699 -695.1709)">
			<stop  offset="0.0364" style="stop-color:#1C1C1C"/>
			<stop  offset="0.0921" style="stop-color:#161616"/>
			<stop  offset="0.2638" style="stop-color:#090909"/>
			<stop  offset="0.4918" style="stop-color:#020202"/>
			<stop  offset="1" style="stop-color:#000000"/>
		</linearGradient>
		<path id="BLUE_4_1_" fill="url(#BLUE_4_3_)" d="M8,47.989c0,29.633,10.365,40,40,40c29.637,0,40-10.367,40-40
			c0-28.985-9.926-39.53-38.091-39.979h-3.817C17.928,8.459,8,19.004,8,47.989z"/>
		
			<linearGradient id="HIGHLIGHT_BLU4_1_" gradientUnits="userSpaceOnUse" x1="-1151.4502" y1="-1379.3164" x2="-1151.4502" y2="-1458.5645" gradientTransform="matrix(1 0 0 -1 1199.4502 -1371.0605)">
			<stop  offset="0.0364" style="stop-color:#FFFFFF"/>
			<stop  offset="0.129" style="stop-color:#F5F7FA"/>
			<stop  offset="0.2858" style="stop-color:#DBE1ED"/>
			<stop  offset="0.4876" style="stop-color:#AFBDD7"/>
			<stop  offset="0.7265" style="stop-color:#738CB8"/>
			<stop  offset="0.9942" style="stop-color:#284D92"/>
			<stop  offset="1" style="stop-color:#264C91"/>
		</linearGradient>
		<path id="HIGHLIGHT_BLU4" opacity="0.25" fill="url(#HIGHLIGHT_BLU4_1_)" enable-background="new    " d="M48,8
			C18.365,8,8,18.365,8,48c0,29.633,10.365,40,40,40c29.637,0,40-10.367,40-40C88,18.365,77.637,8,48,8z M48,87.023
			C18.842,87.023,9,77.176,9,48S18.842,8.977,48,8.977S87,18.824,87,48S77.158,87.023,48,87.023z"/>
	</g>
	<g id="BLUE_3_2_" display="none">
		
			<linearGradient id="BLUE_3_3_" gradientUnits="userSpaceOnUse" x1="-1151.4502" y1="-1379.0703" x2="-1151.4502" y2="-1459.0498" gradientTransform="matrix(1 0 0 -1 1199.4502 -1371.0605)">
			<stop  offset="0.0364" style="stop-color:#66A2D3"/>
			<stop  offset="0.2002" style="stop-color:#5C9BCE"/>
			<stop  offset="0.4773" style="stop-color:#4289C1"/>
			<stop  offset="0.8316" style="stop-color:#176CAB"/>
			<stop  offset="1" style="stop-color:#005DA0"/>
		</linearGradient>
		<path id="BLUE_3_1_" display="inline" fill="url(#BLUE_3_3_)" d="M8,47.989c0,29.633,10.365,40,40,40c29.637,0,40-10.367,40-40
			c0-28.985-9.926-39.53-38.091-39.979h-3.817C17.928,8.459,8,19.004,8,47.989z"/>
		
			<linearGradient id="HIGHLIGHT_BLU3_1_" gradientUnits="userSpaceOnUse" x1="-1151.4502" y1="-1379.3164" x2="-1151.4502" y2="-1458.5645" gradientTransform="matrix(1 0 0 -1 1199.4502 -1371.0605)">
			<stop  offset="0.0364" style="stop-color:#FFFFFF"/>
			<stop  offset="0.1184" style="stop-color:#F5F9FC"/>
			<stop  offset="0.2572" style="stop-color:#DBE9F5"/>
			<stop  offset="0.4359" style="stop-color:#AFCFEA"/>
			<stop  offset="0.6475" style="stop-color:#73ACDA"/>
			<stop  offset="0.8842" style="stop-color:#287FC6"/>
			<stop  offset="1" style="stop-color:#0067BC"/>
		</linearGradient>
		<path id="HIGHLIGHT_BLU3" display="inline" opacity="0.25" fill="url(#HIGHLIGHT_BLU3_1_)" enable-background="new    " d="M48,8
			C18.365,8,8,18.365,8,48c0,29.633,10.365,40,40,40c29.637,0,40-10.367,40-40C88,18.365,77.637,8,48,8z M48,87.023
			C18.842,87.023,9,77.176,9,48S18.842,8.977,48,8.977S87,18.824,87,48S77.158,87.023,48,87.023z"/>
	</g>
	<g id="BLUE_2_2_" display="none">
		
			<linearGradient id="BLUE_2_3_" gradientUnits="userSpaceOnUse" x1="-1151.4502" y1="-1379.0703" x2="-1151.4502" y2="-1459.0498" gradientTransform="matrix(1 0 0 -1 1199.4502 -1371.0605)">
			<stop  offset="0.0364" style="stop-color:#63B3E0"/>
			<stop  offset="0.204" style="stop-color:#59ACDA"/>
			<stop  offset="0.4875" style="stop-color:#3F99C9"/>
			<stop  offset="0.8499" style="stop-color:#147BAE"/>
			<stop  offset="1" style="stop-color:#006DA2"/>
		</linearGradient>
		<path id="BLUE_2_1_" display="inline" fill="url(#BLUE_2_3_)" d="M8,47.989c0,29.633,10.365,40,40,40c29.637,0,40-10.367,40-40
			c0-28.985-9.926-39.53-38.091-39.979h-3.817C17.928,8.459,8,19.004,8,47.989z"/>
		
			<linearGradient id="HIGHLIGHT_BLU2_1_" gradientUnits="userSpaceOnUse" x1="-1151.4502" y1="-1379.3164" x2="-1151.4502" y2="-1458.5645" gradientTransform="matrix(1 0 0 -1 1199.4502 -1371.0605)">
			<stop  offset="0.0364" style="stop-color:#FFFFFF"/>
			<stop  offset="0.1233" style="stop-color:#F5F9FB"/>
			<stop  offset="0.2704" style="stop-color:#DBE7F0"/>
			<stop  offset="0.4598" style="stop-color:#AFCBDD"/>
			<stop  offset="0.6841" style="stop-color:#73A4C4"/>
			<stop  offset="0.9352" style="stop-color:#2873A4"/>
			<stop  offset="1" style="stop-color:#13659B"/>
		</linearGradient>
		<path id="HIGHLIGHT_BLU2" display="inline" opacity="0.25" fill="url(#HIGHLIGHT_BLU2_1_)" enable-background="new    " d="M48,8
			C18.365,8,8,18.365,8,48c0,29.633,10.365,40,40,40c29.637,0,40-10.367,40-40C88,18.365,77.637,8,48,8z M48,87.023
			C18.842,87.023,9,77.176,9,48S18.842,8.977,48,8.977S87,18.824,87,48S77.158,87.023,48,87.023z"/>
	</g>
	<g id="BLUE_1_1_" display="none">
		
			<linearGradient id="BLUE_1_3_" gradientUnits="userSpaceOnUse" x1="-1151.4502" y1="-1379.0703" x2="-1151.4502" y2="-1459.0498" gradientTransform="matrix(1 0 0 -1 1199.4502 -1371.0605)">
			<stop  offset="0.0364" style="stop-color:#6BCFDB"/>
			<stop  offset="0.1944" style="stop-color:#61C7D4"/>
			<stop  offset="0.4617" style="stop-color:#47B0C3"/>
			<stop  offset="0.8033" style="stop-color:#1C8CA6"/>
			<stop  offset="1" style="stop-color:#007594"/>
		</linearGradient>
		<path id="BLUE_1_2_" display="inline" fill="url(#BLUE_1_3_)" d="M8,47.989c0,29.633,10.365,40,40,40c29.637,0,40-10.367,40-40
			c0-28.985-9.926-39.53-38.091-39.979h-3.817C17.928,8.459,8,19.004,8,47.989z"/>
		
			<linearGradient id="HIGHLIGHT_BLU1_1_" gradientUnits="userSpaceOnUse" x1="-1151.4502" y1="-1379.3164" x2="-1151.4502" y2="-1458.5645" gradientTransform="matrix(1 0 0 -1 1199.4502 -1371.0605)">
			<stop  offset="0.0364" style="stop-color:#FFFDF2"/>
			<stop  offset="0.1064" style="stop-color:#F5F8F0"/>
			<stop  offset="0.2248" style="stop-color:#DBEBE9"/>
			<stop  offset="0.3771" style="stop-color:#AFD5DF"/>
			<stop  offset="0.5394" style="stop-color:#7ABAD2"/>
			<stop  offset="1" style="stop-color:#00879A"/>
		</linearGradient>
		<path id="HIGHLIGHT_BLU1" display="inline" opacity="0.25" fill="url(#HIGHLIGHT_BLU1_1_)" enable-background="new    " d="M48,8
			C18.365,8,8,18.365,8,48c0,29.633,10.365,40,40,40c29.637,0,40-10.367,40-40C88,18.365,77.637,8,48,8z M48,87.023
			C18.842,87.023,9,77.176,9,48S18.842,8.977,48,8.977S87,18.824,87,48S77.158,87.023,48,87.023z"/>
	</g>
</g>
<g id="VIOLET_x2F_PINK_BACKGROUNDS" display="none">
	<g id="PINK_2_2_" display="inline">
		
			<linearGradient id="PINK_2_3_" gradientUnits="userSpaceOnUse" x1="-1151.4502" y1="-1379.0703" x2="-1151.4502" y2="-1459.0498" gradientTransform="matrix(1 0 0 -1 1199.4502 -1371.0605)">
			<stop  offset="0.0364" style="stop-color:#FF61C7"/>
			<stop  offset="0.1942" style="stop-color:#F759C1"/>
			<stop  offset="0.4381" style="stop-color:#E145B1"/>
			<stop  offset="0.7357" style="stop-color:#BE2396"/>
			<stop  offset="1" style="stop-color:#99007A"/>
		</linearGradient>
		<path id="PINK_2_1_" fill="url(#PINK_2_3_)" d="M8,47.988c0,29.634,10.365,40.001,40,40.001c29.637,0,40-10.367,40-40.001
			C88,19.004,78.074,8.459,49.909,8.01h-3.817C17.928,8.459,8,19.004,8,47.988z"/>
		
			<linearGradient id="HIGHLIGHT_PI2_2_" gradientUnits="userSpaceOnUse" x1="-1151.4502" y1="-1379.3164" x2="-1151.4502" y2="-1458.5649" gradientTransform="matrix(1 0 0 -1 1199.4502 -1371.0605)">
			<stop  offset="0.0364" style="stop-color:#FFFFFF"/>
			<stop  offset="0.119" style="stop-color:#FCF7FB"/>
			<stop  offset="0.2468" style="stop-color:#F3E1F0"/>
			<stop  offset="0.4038" style="stop-color:#E5BEDD"/>
			<stop  offset="0.5839" style="stop-color:#D18CC3"/>
			<stop  offset="0.7837" style="stop-color:#B84DA2"/>
			<stop  offset="0.9971" style="stop-color:#99017B"/>
			<stop  offset="1" style="stop-color:#99007A"/>
		</linearGradient>
		<path id="HIGHLIGHT_PI2_1_" opacity="0.25" fill="url(#HIGHLIGHT_PI2_2_)" enable-background="new    " d="M48,8
			C18.365,8,8,18.365,8,48c0,29.632,10.365,40,40,40c29.637,0,40-10.367,40-40C88,18.365,77.637,8,48,8z M48,87.023
			C18.842,87.023,9,77.176,9,48S18.842,8.976,48,8.976S87,18.824,87,48S77.158,87.023,48,87.023z"/>
	</g>
	<g id="PINK_1_2_" display="inline">
		
			<linearGradient id="PINK_1_3_" gradientUnits="userSpaceOnUse" x1="-1151.4502" y1="-1379.0703" x2="-1151.4502" y2="-1459.0498" gradientTransform="matrix(1 0 0 -1 1199.4502 -1371.0605)">
			<stop  offset="0.0364" style="stop-color:#E64DD4"/>
			<stop  offset="0.2159" style="stop-color:#DE46CE"/>
			<stop  offset="0.4932" style="stop-color:#C832BC"/>
			<stop  offset="0.8319" style="stop-color:#A5129F"/>
			<stop  offset="1" style="stop-color:#91008F"/>
		</linearGradient>
		<path id="PINK_1_1_" fill="url(#PINK_1_3_)" d="M8,47.989c0,29.633,10.365,40,40,40c29.637,0,40-10.367,40-40
			c0-28.985-9.926-39.53-38.091-39.979h-3.817C17.928,8.459,8,19.004,8,47.989z"/>
		
			<linearGradient id="HIGHLIGHT_PI2_3_" gradientUnits="userSpaceOnUse" x1="-1151.4502" y1="-1379.3164" x2="-1151.4502" y2="-1458.5649" gradientTransform="matrix(1 0 0 -1 1199.4502 -1371.0605)">
			<stop  offset="0.0364" style="stop-color:#FFFFFF"/>
			<stop  offset="0.119" style="stop-color:#FCF7FC"/>
			<stop  offset="0.2468" style="stop-color:#F2E1F2"/>
			<stop  offset="0.4038" style="stop-color:#E3BEE2"/>
			<stop  offset="0.5839" style="stop-color:#CE8CCD"/>
			<stop  offset="0.7837" style="stop-color:#B24DB1"/>
			<stop  offset="0.9971" style="stop-color:#91018F"/>
			<stop  offset="1" style="stop-color:#91008F"/>
		</linearGradient>
		<path id="HIGHLIGHT_PI2" opacity="0.25" fill="url(#HIGHLIGHT_PI2_3_)" enable-background="new    " d="M48,8
			C18.365,8,8,18.365,8,48c0,29.632,10.365,40,40,40c29.637,0,40-10.367,40-40C88,18.365,77.637,8,48,8z M48,87.023
			C18.842,87.023,9,77.176,9,48S18.842,8.976,48,8.976S87,18.824,87,48S77.158,87.023,48,87.023z"/>
	</g>
	<g id="VIOLET_2_2_" display="inline">
		
			<linearGradient id="VIOLET_2_3_" gradientUnits="userSpaceOnUse" x1="-1151.4502" y1="-1379.0703" x2="-1151.4502" y2="-1461.8162" gradientTransform="matrix(1 0 0 -1 1199.4502 -1371.0605)">
			<stop  offset="0.0364" style="stop-color:#BA66E0"/>
			<stop  offset="0.2174" style="stop-color:#B260D8"/>
			<stop  offset="0.497" style="stop-color:#9D51C2"/>
			<stop  offset="0.8385" style="stop-color:#7C379F"/>
			<stop  offset="1" style="stop-color:#69298C"/>
		</linearGradient>
		<path id="VIOLET_2_1_" fill="url(#VIOLET_2_3_)" d="M8,47.989c0,29.633,10.365,40,40,40c29.637,0,40-10.367,40-40
			c0-28.985-9.926-39.53-38.091-39.979h-3.817C17.928,8.459,8,19.004,8,47.989z"/>
		
			<linearGradient id="HIGHLIGHT_VIO2_1_" gradientUnits="userSpaceOnUse" x1="-1151.4502" y1="-1379.3164" x2="-1151.4502" y2="-1458.5649" gradientTransform="matrix(1 0 0 -1 1199.4502 -1371.0605)">
			<stop  offset="0.0364" style="stop-color:#FFFFFF"/>
			<stop  offset="0.1299" style="stop-color:#F9F7FB"/>
			<stop  offset="0.2745" style="stop-color:#EAE1EF"/>
			<stop  offset="0.452" style="stop-color:#D1BEDC"/>
			<stop  offset="0.6558" style="stop-color:#AF8CC1"/>
			<stop  offset="0.8786" style="stop-color:#834EA0"/>
			<stop  offset="1" style="stop-color:#69298C"/>
		</linearGradient>
		<path id="HIGHLIGHT_VIO2" opacity="0.25" fill="url(#HIGHLIGHT_VIO2_1_)" enable-background="new    " d="M48,8
			C18.365,8,8,18.365,8,48c0,29.632,10.365,40,40,40c29.637,0,40-10.367,40-40C88,18.365,77.637,8,48,8z M48,87.023
			C18.842,87.023,9,77.176,9,48S18.842,8.976,48,8.976S87,18.824,87,48S77.158,87.023,48,87.023z"/>
	</g>
	<g id="VIOLET_1_2_" display="inline">
		
			<linearGradient id="VIOLET_1_3_" gradientUnits="userSpaceOnUse" x1="-1151.4502" y1="-1380.8223" x2="-1151.4502" y2="-1460.8018" gradientTransform="matrix(1 0 0 -1 1199.4502 -1371.0605)">
			<stop  offset="0.0364" style="stop-color:#A14DDB"/>
			<stop  offset="0.2205" style="stop-color:#9949D3"/>
			<stop  offset="0.505" style="stop-color:#833CBE"/>
			<stop  offset="0.8523" style="stop-color:#60299D"/>
			<stop  offset="1" style="stop-color:#4F1F8C"/>
		</linearGradient>
		<path id="VIOLET_1_1_" fill="url(#VIOLET_1_3_)" d="M8,47.989c0,29.633,10.365,40,40,40c29.637,0,40-10.367,40-40
			c0-28.985-9.926-39.53-38.091-39.979h-3.817C17.928,8.459,8,19.004,8,47.989z"/>
		
			<linearGradient id="HIGHLIGHT_VIO1_1_" gradientUnits="userSpaceOnUse" x1="-1151.4502" y1="-1379.3164" x2="-1151.4502" y2="-1458.5649" gradientTransform="matrix(1 0 0 -1 1199.4502 -1371.0605)">
			<stop  offset="0.0364" style="stop-color:#FFFFFF"/>
			<stop  offset="1" style="stop-color:#4A1F8C"/>
		</linearGradient>
		<path id="HIGHLIGHT_VIO1" opacity="0.25" fill="url(#HIGHLIGHT_VIO1_1_)" enable-background="new    " d="M48,8
			C18.365,8,8,18.365,8,48c0,29.632,10.365,40,40,40c29.637,0,40-10.367,40-40C88,18.365,77.637,8,48,8z M48,87.023
			C18.842,87.023,9,77.176,9,48S18.842,8.977,48,8.977S87,18.824,87,48S77.158,87.023,48,87.023z"/>
	</g>
</g>
<g id="DO_NOT_EDIT_-_FOCAL_ZONE_GUIDES_ONLY">
</g>
<g id="PLACE_YOUR_GRAPHIC_HERE">
	<path opacity="0.5" enable-background="new    " d="M48.292,34.663c-7.026,0-12.733,5.793-12.733,12.958
		c0,2.454,0.662,4.73,1.834,6.673L35.1,61.25l7.056-2.301c1.834,1.033,3.921,1.604,6.163,1.604c7.029,0,12.759-5.792,12.759-12.958
		C61.079,40.431,55.351,34.663,48.292,34.663z M48.292,58.513c-2.165,0-4.198-0.678-5.907-1.814l-4.101,1.345l1.351-4.033
		c-1.272-1.785-2.038-4.008-2.038-6.388c0-6.002,4.813-10.89,10.725-10.89c5.881,0,10.695,4.888,10.695,10.89
		C59.017,53.621,54.204,58.513,48.292,58.513z"/>
	<path opacity="0.5" enable-background="new    " d="M44.854,42.562c-0.253-0.64-0.51-0.512-0.711-0.512
		c-0.205,0-0.382-0.026-0.612-0.026c-0.229,0-0.533,0.078-0.84,0.382c-0.306,0.309-1.095,1.074-1.095,2.608
		c0,1.534,1.12,3.043,1.273,3.249c0.152,0.207,2.165,3.477,5.35,4.733c3.207,1.25,3.207,0.84,3.769,0.791
		c0.562-0.05,1.856-0.77,2.113-1.48c0.257-0.74,0.257-1.356,0.18-1.48c-0.076-0.131-0.281-0.205-0.611-0.357
		c-0.305-0.152-1.86-0.921-2.141-1.022c-0.279-0.104-0.481-0.15-0.713,0.153c-0.201,0.307-0.813,1.021-0.99,1.228
		c-0.178,0.205-0.354,0.231-0.689,0.075c-0.305-0.151-1.324-0.487-2.521-1.56c-0.917-0.845-1.552-1.867-1.731-2.174
		c-0.179-0.307-0.026-0.485,0.127-0.639c0.153-0.128,0.307-0.356,0.458-0.535c0.153-0.18,0.205-0.309,0.306-0.512
		c0.103-0.206,0.051-0.384-0.025-0.538C45.746,44.734,45.108,43.175,44.854,42.562z"/>
	<path fill="#FFFFFF" d="M48.165,34.667c-7.029,0-12.735,5.727-12.735,12.808c0,2.425,0.662,4.68,1.833,6.6l-2.292,6.873
		l7.056-2.274c1.834,1.022,3.922,1.585,6.164,1.585c7.028,0,12.758-5.726,12.758-12.809C60.95,40.369,55.221,34.667,48.165,34.667z
		 M48.165,58.241c-2.167,0-4.202-0.667-5.91-1.793l-4.1,1.331l1.35-3.987c-1.273-1.767-2.037-3.966-2.037-6.317
		c0-5.932,4.813-10.764,10.724-10.764c5.884,0,10.698,4.833,10.698,10.764C58.889,53.405,54.071,58.241,48.165,58.241z"/>
	<path fill="#FFFFFF" d="M44.984,42.413c-0.254-0.639-0.511-0.512-0.712-0.512c-0.205,0-0.381-0.025-0.611-0.025
		s-0.535,0.077-0.841,0.382c-0.306,0.308-1.094,1.074-1.094,2.608c0,1.534,1.12,3.042,1.272,3.248
		c0.152,0.206,2.167,3.477,5.35,4.73c3.206,1.253,3.206,0.843,3.77,0.794c0.561-0.05,1.856-0.77,2.115-1.482
		c0.256-0.737,0.256-1.354,0.18-1.479c-0.078-0.131-0.282-0.207-0.614-0.358c-0.306-0.153-1.858-0.92-2.14-1.021
		c-0.279-0.104-0.481-0.152-0.711,0.154c-0.203,0.306-0.813,1.02-0.992,1.227c-0.178,0.204-0.356,0.23-0.688,0.074
		c-0.308-0.152-1.327-0.488-2.522-1.561c-0.917-0.842-1.552-1.866-1.731-2.172c-0.179-0.308-0.025-0.485,0.127-0.64
		c0.153-0.127,0.306-0.357,0.458-0.536c0.153-0.179,0.205-0.308,0.307-0.512c0.103-0.205,0.051-0.383-0.025-0.538
		C45.875,44.585,45.24,43.026,44.984,42.413z"/>
</g>
<path opacity="0.15" enable-background="new    " d="M34.986,85.318c-0.664,0-1.329-0.162-1.919-0.474l-8.261-4.368
	c-0.966-0.509-1.671-1.357-1.986-2.394c-0.298-0.976-0.216-2.006,0.236-2.916l1.037-3.203l0.028-0.121
	c0.002-0.012,0.474-2.028-0.264-4.135c-1.949-2.281-3.544-4.808-4.738-7.498c-1.582-1.578-3.593-2.049-3.613-2.053L15.251,58.1
	l-3.283-0.485c-2.25-0.107-3.93-1.775-4.003-3.894L7.67,44.487c-0.07-2.161,1.618-3.992,3.792-4.156l3.332-0.711l0.123-0.035
	c0.014-0.003,2.031-0.612,3.502-2.31c0.557-1.508,1.149-2.823,1.792-4.004c0.644-1.193,1.418-2.38,2.418-3.712
	c0.621-2.161,0.017-4.159,0.011-4.176l-1.28-3.233c-0.505-0.89-0.658-1.916-0.416-2.916c0.253-1.056,0.902-1.942,1.834-2.505
	l6.508-3.972l1.44-0.893c0.657-0.402,1.399-0.609,2.16-0.609c1.376,0,2.629,0.662,3.393,1.773l2.267,2.464l0.113,0.105
	c0.008,0.009,1.589,1.458,3.865,1.849c1.744-0.286,3.519-0.432,5.272-0.432c1.144,0,2.292,0.059,3.427,0.182
	c2.264-0.525,3.762-2.091,3.774-2.108l0.11-0.108l2.104-2.598c0.738-1.228,2.073-1.983,3.528-1.983c0.668,0,1.342,0.167,1.933,0.481
	l1.499,0.781l6.761,3.584c0.953,0.493,1.661,1.342,1.979,2.374c0.054,0.167,0.093,0.335,0.121,0.507l0.056-0.055l-0.041,0.157
	c0.115,0.788-0.009,1.595-0.368,2.321l-1.076,3.336c-0.029,0.157-0.475,2.231,0.347,4.331c1.803,2.16,3.303,4.543,4.454,7.1
	c1.604,1.735,3.807,2.243,3.826,2.249l0.146,0.035l3.383,0.507c2.252,0.096,3.946,1.776,4.009,3.905l0.297,9.217
	c0.033,1.086-0.364,2.115-1.117,2.9c-0.094,0.096-0.188,0.188-0.287,0.273l0.205,0.049l-0.41,0.115
	c-0.635,0.477-1.387,0.762-2.189,0.813l-3.293,0.709l-0.162,0.043c-0.017,0.006-2.193,0.652-3.677,2.508
	c-0.563,1.479-1.11,2.701-1.713,3.808c-0.603,1.102-1.315,2.213-2.254,3.483c-0.733,2.242-0.084,4.377-0.076,4.4l1.287,3.24
	c1.062,1.875,0.452,4.274-1.41,5.414l-7.974,4.863c-0.641,0.395-1.387,0.604-2.155,0.604c-1.364,0-2.616-0.652-3.384-1.763
	L57.166,80.2l-0.098-0.095c-0.006-0.006-1.594-1.471-3.883-1.856c-1.752,0.308-3.547,0.461-5.339,0.461
	c-1.123,0-2.258-0.062-3.384-0.178c-2.239,0.53-3.716,2.075-3.73,2.094l-0.073,0.076l-2.135,2.637
	C37.784,84.563,36.449,85.318,34.986,85.318L34.986,85.318z M47.769,28.472c-10.927,0-19.814,8.763-19.814,19.529
	c0,10.765,8.887,19.521,19.814,19.521c10.926,0,19.811-8.756,19.811-19.521C67.58,37.229,58.695,28.472,47.769,28.472L47.769,28.472
	z"/>
<path opacity="0.3" enable-background="new    " d="M86.334,51.539l-0.186-5.871l-0.058-1.673c-0.039-1.324-1.153-2.348-2.497-2.31
	l-3.753-0.563c0.013,0,0.026-0.011,0.026-0.011s-2.871-0.616-4.895-2.969c-1.125-2.555-2.625-4.96-4.478-7.136
	c-1.218-2.823-0.511-5.599-0.511-5.599s-0.012,0.009-0.012,0.02l1.148-3.566c0.636-1.157,0.193-2.612-0.989-3.228l-1.496-0.801
	l-5.25-2.773l-1.505-0.788c-1.178-0.621-2.646-0.189-3.281,0.974l-2.365,2.925v-0.03c0,0-1.918,2.082-4.93,2.666
	c-2.943-0.344-5.896-0.248-8.769,0.25c-3.014-0.408-5.042-2.336-5.042-2.336s0.006,0.021,0.006,0.026l-2.553-2.773
	c-0.705-1.123-2.202-1.467-3.334-0.772l-1.446,0.892l-5.062,3.094l-1.449,0.887c-1.135,0.682-1.489,2.164-0.781,3.284l1.379,3.479
	c-0.003-0.008-0.014-0.012-0.014-0.012s0.837,2.601-0.093,5.424c-0.896,1.178-1.741,2.4-2.463,3.738
	c-0.717,1.313-1.292,2.671-1.787,4.053c-1.862,2.316-4.52,3.068-4.52,3.068s0.012,0.006,0.02,0.006l-3.708,0.793
	c-1.337,0.047-2.391,1.138-2.349,2.458l0.06,1.679l0.185,5.874l0.051,1.68c0.048,1.314,1.163,2.351,2.497,2.303l3.752,0.562
	c-0.008,0.013-0.02,0.019-0.02,0.019s2.663,0.573,4.668,2.744c1.179,2.727,2.792,5.28,4.789,7.573
	c1.09,2.744,0.421,5.384,0.421,5.384s0.017-0.017,0.02-0.017l-1.155,3.562c-0.631,1.162-0.191,2.61,0.986,3.229l1.503,0.793
	l5.255,2.779l1.497,0.799c1.177,0.613,2.648,0.182,3.283-0.982l2.362-2.918v0.018c0,0,1.899-2.047,4.876-2.646
	c2.958,0.343,5.915,0.248,8.786-0.278c3.035,0.397,5.074,2.348,5.074,2.348s0-0.018,0-0.021l2.552,2.773
	c0.7,1.117,2.198,1.459,3.327,0.762l1.453-0.877l5.066-3.094l1.446-0.891c1.137-0.697,1.479-2.16,0.778-3.293l-1.379-3.476
	c0.004,0.008,0.012,0.015,0.012,0.015s-0.897-2.752,0.174-5.664c0.818-1.107,1.598-2.246,2.275-3.496
	c0.679-1.25,1.221-2.535,1.703-3.83c1.868-2.5,4.709-3.289,4.709-3.289s-0.013-0.004-0.016-0.008l3.705-0.793
	c1.334-0.037,2.388-1.152,2.345-2.457L86.334,51.539z M47.769,71.105c-11.868,0-21.488-9.48-21.488-21.172
	c0-11.695,9.62-21.177,21.488-21.177c11.864,0,21.487,9.481,21.487,21.177C69.256,61.625,59.633,71.105,47.769,71.105z"/>
<linearGradient id="SVGID_1_" gradientUnits="userSpaceOnUse" x1="-1154.1465" y1="775.04" x2="-1154.1465" y2="711.0176" gradientTransform="matrix(1 0 0 1 1202.1699 -695.1709)">
	<stop  offset="0" style="stop-color:#D0CBC5"/>
	<stop  offset="0.5031" style="stop-color:#FAFCEF"/>
	<stop  offset="0.9693" style="stop-color:#FFFFFF"/>
</linearGradient>
<path fill="url(#SVGID_1_)" d="M82.662,49.416l-0.168-5.248l-0.051-1.496c-0.035-1.182-1.039-2.1-2.248-2.063l-3.379-0.506
	c0.01,0,0.022-0.01,0.022-0.01s-2.584-0.548-4.406-2.649c-1.014-2.289-2.362-4.439-4.03-6.384c-1.097-2.518-0.459-5.002-0.459-5.002
	s-0.011,0.011-0.011,0.016l1.033-3.188c0.571-1.038,0.176-2.336-0.892-2.883l-1.346-0.714l-4.727-2.482l-1.355-0.704
	c-1.061-0.563-2.383-0.167-2.953,0.868l-2.131,2.612v-0.021c0,0-1.727,1.859-4.438,2.38c-2.65-0.308-5.308-0.219-7.896,0.227
	c-2.714-0.37-4.54-2.091-4.54-2.091s0.005,0.019,0.005,0.023l-2.299-2.477c-0.635-1.006-1.982-1.311-2.999-0.696l-1.305,0.805
	l-4.557,2.761l-1.304,0.792c-1.022,0.613-1.341,1.94-0.704,2.938l1.242,3.11c-0.003-0.008-0.013-0.01-0.013-0.01
	s0.754,2.325-0.083,4.849c-0.807,1.05-1.568,2.146-2.218,3.342c-0.645,1.173-1.164,2.391-1.609,3.621
	c-1.676,2.07-4.069,2.742-4.069,2.742s0.011,0.008,0.018,0.008l-3.338,0.704c-1.204,0.042-2.152,1.024-2.115,2.203l0.051,1.501
	l0.167,5.25l0.046,1.502c0.043,1.181,1.047,2.103,2.248,2.062l3.378,0.5c-0.008,0.008-0.018,0.016-0.018,0.016
	s2.397,0.51,4.203,2.445c1.062,2.447,2.514,4.731,4.312,6.776c0.981,2.457,0.379,4.814,0.379,4.814s0.015-0.019,0.018-0.019
	l-1.04,3.187c-0.568,1.043-0.172,2.336,0.888,2.889l1.353,0.707l4.731,2.484l1.348,0.711c1.059,0.553,2.384,0.164,2.956-0.875
	l2.127-2.611v0.019c0,0,1.709-1.828,4.39-2.367c2.663,0.307,5.326,0.221,7.91-0.248c2.734,0.354,4.57,2.1,4.57,2.1s0-0.016,0-0.018
	l2.297,2.48c0.631,0.995,1.979,1.305,2.996,0.682l1.307-0.793l4.563-2.764l1.303-0.789c1.023-0.625,1.332-1.937,0.699-2.945
	l-1.24-3.105c0.004,0.006,0.011,0.012,0.011,0.012s-0.808-2.465,0.155-5.065c0.738-0.988,1.439-2.015,2.05-3.121
	c0.61-1.121,1.1-2.271,1.534-3.431c1.683-2.235,4.238-2.94,4.238-2.94s-0.01-0.002-0.014-0.006l3.336-0.707
	c1.201-0.033,2.15-1.026,2.111-2.201L82.662,49.416z M47.941,66.908c-10.685,0-19.346-8.475-19.346-18.924
	c0-10.458,8.661-18.931,19.346-18.931c10.68,0,19.344,8.472,19.344,18.931C67.285,58.434,58.621,66.908,47.941,66.908z"/>
<path fill="#FFFFFF" d="M28.245,68.803c-0.053,0.529-0.134,0.855-0.134,0.855l0.016-0.016l-1.037,3.186
	c-0.332,0.602-0.326,1.293-0.061,1.875c0.02-0.047,0.032-0.102,0.061-0.152l1.037-3.178l-0.016,0.014
	C28.111,71.387,28.379,70.281,28.245,68.803z M27.019,30.482c-0.048,0.534-0.152,1.104-0.346,1.691
	c-0.807,1.05-1.568,2.146-2.218,3.342c-0.645,1.173-1.164,2.391-1.609,3.621c-1.676,2.07-4.069,2.742-4.069,2.742
	s0.011,0.008,0.018,0.008l-3.338,0.704c-1.204,0.042-2.152,1.024-2.115,2.203l0.046,1.251c0.19-0.957,1.034-1.684,2.069-1.721
	l3.338-0.709c-0.007,0-0.018-0.005-0.018-0.005s2.393-0.672,4.069-2.743c0.445-1.233,0.964-2.448,1.609-3.621
	c0.65-1.199,1.411-2.289,2.218-3.344C27.1,32.615,27.11,31.384,27.019,30.482z M26.227,23.019l1.305-0.79l4.56-2.769l1.3-0.797
	c1.021-0.618,2.367-0.313,3.001,0.693l2.296,2.479c0-0.005-0.002-0.023-0.002-0.023s1.823,1.721,4.539,2.088
	c2.587-0.448,5.246-0.534,7.896-0.222c2.707-0.523,4.438-2.385,4.438-2.385v0.023l2.133-2.612c0.567-1.041,1.887-1.429,2.951-0.871
	l1.352,0.704l4.729,2.479l1.35,0.714c0.443,0.229,0.763,0.592,0.949,1.012c0.461-1.012,0.063-2.213-0.949-2.74l-1.35-0.712
	l-4.729-2.484l-1.352-0.704c-1.064-0.558-2.384-0.167-2.951,0.873l-2.133,2.609v-0.023c0,0-1.73,1.859-4.438,2.38
	c-2.65-0.308-5.309-0.219-7.896,0.227c-2.716-0.37-4.539-2.091-4.539-2.091s0.002,0.019,0.002,0.023l-2.296-2.477
	c-0.634-1.006-1.98-1.311-3.001-0.696l-1.3,0.805l-4.557,2.761l-1.304,0.792c-0.934,0.561-1.27,1.71-0.84,2.665
	C25.562,23.582,25.845,23.248,26.227,23.019z M69.285,68.381c0.002,0.006,0.008,0.01,0.008,0.01s-0.186-0.578-0.271-1.461
	c-0.184,1.799,0.271,3.189,0.271,3.189s-0.006-0.006-0.008-0.012l1.242,3.104c0.055,0.094,0.092,0.186,0.137,0.281
	c0.285-0.625,0.26-1.375-0.137-2.004L69.285,68.381z M82.658,49.416l-0.168-5.248l-0.051-1.496c-0.035-1.182-1.039-2.1-2.248-2.063
	l-3.379-0.506c0.01,0,0.022-0.01,0.022-0.01s-2.584-0.548-4.406-2.649c-1.014-2.289-2.362-4.439-4.03-6.384
	c-0.365-0.839-0.527-1.671-0.597-2.409c-0.098,0.938-0.104,2.529,0.597,4.14c1.668,1.944,3.018,4.095,4.03,6.379
	c1.822,2.104,4.406,2.654,4.406,2.654s-0.015,0.01-0.022,0.01l3.379,0.503c1.209-0.034,2.213,0.883,2.248,2.064l0.051,1.496
	l0.168,5.248l0.006,0.238c0.031-0.15,0.047-0.309,0.041-0.467L82.658,49.416z M47.938,66.908c-10.389,0-18.834-8.018-19.301-18.061
	c-0.015,0.288-0.045,0.573-0.045,0.864c0,10.451,8.661,18.926,19.346,18.926c10.68,0,19.344-8.475,19.344-18.926
	c0-0.291-0.028-0.576-0.045-0.864C66.771,58.891,58.322,66.908,47.938,66.908z"/>
</svg>
