<?xml version="1.0" encoding="UTF-8" standalone="no"?>
<!-- Generator: Adobe Illustrator 15.0.0, SVG Export Plug-In . SVG Version: 6.00 Build 0)  -->

<svg
   xmlns:dc="http://purl.org/dc/elements/1.1/"
   xmlns:cc="http://creativecommons.org/ns#"
   xmlns:rdf="http://www.w3.org/1999/02/22-rdf-syntax-ns#"
   xmlns:svg="http://www.w3.org/2000/svg"
   xmlns="http://www.w3.org/2000/svg"
   xmlns:sodipodi="http://sodipodi.sourceforge.net/DTD/sodipodi-0.dtd"
   xmlns:inkscape="http://www.inkscape.org/namespaces/inkscape"
   version="1.1"
   id="Layer_1"
   x="0px"
   y="0px"
   width="96px"
   height="96px"
   viewBox="0 0 96 96"
   enable-background="new 0 0 96 96"
   xml:space="preserve"
   inkscape:version="0.48.1 "
   sodipodi:docname="Entry01.svg"><metadata
   id="metadata50"><rdf:RDF><cc:Work
       rdf:about=""><dc:format>image/svg+xml</dc:format><dc:type
         rdf:resource="http://purl.org/dc/dcmitype/StillImage" /><dc:title></dc:title></cc:Work></rdf:RDF></metadata><defs
   id="defs48" /><sodipodi:namedview
   pagecolor="#ffffff"
   bordercolor="#666666"
   borderopacity="1"
   objecttolerance="10"
   gridtolerance="10"
   guidetolerance="10"
   inkscape:pageopacity="0"
   inkscape:pageshadow="2"
   inkscape:window-width="1600"
   inkscape:window-height="837"
   id="namedview46"
   showgrid="false"
   inkscape:zoom="6.0625"
   inkscape:cx="47.16574"
   inkscape:cy="41.458268"
   inkscape:window-x="-8"
   inkscape:window-y="-8"
   inkscape:window-maximized="1"
   inkscape:current-layer="Layer_1" />
<g
   id="PLACE_YOUR_GRAPHIC_HERE"
   transform="translate(-0.98969536,-12.206186)">
	
	
	
		<linearGradient
   id="SVGID_1_"
   gradientUnits="userSpaceOnUse"
   x1="-164.46291"
   y1="-137.34911"
   x2="-164.46291"
   y2="-194.26196"
   gradientTransform="matrix(1,0,0,-1,212.6748,-112.7109)">
		<stop
   offset="0"
   style="stop-color:#6CD94E"
   id="stop35" />
		<stop
   offset="0.5153"
   style="stop-color:#1D9E11"
   id="stop37" />
		<stop
   offset="1"
   style="stop-color:#6CD94E"
   id="stop39" />
	</linearGradient>
	<path
   d="m 48.212,24.358 c -6.553421,0 -17.156228,1.928678 -23.055472,6.717992 -5.267461,4.2764 -6.216415,11.067595 -6.216415,17.083802 0,2.807916 -1.580651,13.390787 1.400154,22.273555 1.278695,3.810499 4.850969,7.690747 7.943231,9.395707 3.599172,1.984452 8.314567,2.266891 8.954234,3.188088 l -3.439794,9.72964 15.754784,-10.940475 c 3.528,2.416 11.519015,1.87445 15.864917,0.382083 5.220887,-1.792834 9.66782,-4.505924 11.166077,-9.927807 1.81005,-6.550196 1.229068,-16.295953 1.229068,-23.275049 4.1e-4,-5.231889 -0.719656,-13.119741 -4.760228,-17.296458 C 67.243253,25.684034 55.527686,24.358 48.212,24.358 z"
   id="path41"
   style="fill:url(#SVGID_1_)"
   inkscape:connector-curvature="0"
   sodipodi:nodetypes="ssssscccsscss" />
	
</g><g
   transform="translate(-1.523299,2.6330301e-6)"
   id="Green-1"
   style="fill:#ffffff"><linearGradient
     id="GREEN_3_1_-7"
     gradientUnits="userSpaceOnUse"
     x1="81.604446"
     y1="1402.2859"
     x2="82.099289"
     y2="1467.0901"
     gradientTransform="translate(-33.4395,-1393.7813)"><stop
       offset="0"
       style="stop-color:#31C200"
       id="stop10-4" /><stop
       offset="0.4424"
       style="stop-color:#128700"
       id="stop12-0" /><stop
       offset="0.6364"
       style="stop-color:#158000"
       id="stop14-9" /><stop
       offset="1"
       style="stop-color:#009E00"
       id="stop16-4" /></linearGradient><linearGradient
     id="HIGHLIGHT_GR3_1_-8"
     gradientUnits="userSpaceOnUse"
     x1="81.439499"
     y1="1401.7812"
     x2="81.439499"
     y2="1481.7812"
     gradientTransform="translate(-33.4395,-1393.7813)"><stop
       offset="0"
       style="stop-color:#31C200"
       id="stop20-8" /><stop
       offset="0.4424"
       style="stop-color:#128700"
       id="stop22-2" /><stop
       offset="0.6364"
       style="stop-color:#158000"
       id="stop24-4" /><stop
       offset="1"
       style="stop-color:#009E00"
       id="stop26-5" /></linearGradient><g
     id="PLACE_YOUR_GRAPHIC_HERE-5"
     transform="matrix(1.2388489,0,0,1.2655704,-11.285018,-16.131249)"
     style="fill:#ffffff"><path
       enable-background="new    "
       d="m 41.541,37.131 c -0.529,-1.325 -1.063,-1.06 -1.48,-1.06 -0.426,0 -0.795,-0.052 -1.273,-0.052 -0.477,0 -1.109,0.159 -1.747,0.792 -0.636,0.638 -2.276,2.225 -2.276,5.403 0,3.177 2.33,6.304 2.647,6.728 0.317,0.427 4.503,7.205 11.124,9.802 6.67,2.594 6.67,1.743 7.838,1.643 1.164,-0.104 3.86,-1.592 4.396,-3.071 0.531,-1.53 0.531,-2.81 0.371,-3.067 -0.158,-0.271 -0.586,-0.427 -1.271,-0.74 -0.636,-0.317 -3.867,-1.909 -4.451,-2.118 -0.582,-0.214 -1.004,-0.315 -1.481,0.317 -0.422,0.635 -1.689,2.114 -2.063,2.541 -0.369,0.426 -0.738,0.479 -1.434,0.157 -0.635,-0.315 -2.753,-1.01 -5.241,-3.229 -1.906,-1.748 -3.229,-3.868 -3.599,-4.502 -0.373,-0.637 -0.055,-1.006 0.264,-1.324 0.318,-0.264 0.638,-0.74 0.953,-1.111 0.318,-0.372 0.425,-0.638 0.636,-1.06 0.214,-0.425 0.106,-0.794 -0.052,-1.113 -0.009,-0.434 -1.331,-3.664 -1.861,-4.936 z"
       id="path32-1"
       inkscape:connector-curvature="0"
       style="opacity:0.50000000000000000;fill:#ffffff" /><path
       d="m 41.812,36.823 c -0.53,-1.325 -1.062,-1.06 -1.481,-1.06 -0.426,0 -0.795,-0.052 -1.273,-0.052 -0.477,0 -1.109,0.159 -1.747,0.792 -0.636,0.638 -2.276,2.225 -2.276,5.403 0,3.178 2.33,6.302 2.647,6.727 0.317,0.426 4.503,7.203 11.123,9.801 6.67,2.594 6.67,1.744 7.838,1.645 1.164,-0.104 3.861,-1.594 4.396,-3.072 0.529,-1.531 0.529,-2.811 0.371,-3.066 -0.158,-0.271 -0.586,-0.43 -1.271,-0.74 -0.635,-0.32 -3.867,-1.91 -4.451,-2.119 -0.582,-0.213 -1.004,-0.318 -1.48,0.318 -0.422,0.635 -1.689,2.111 -2.063,2.541 -0.369,0.426 -0.74,0.479 -1.433,0.154 -0.635,-0.313 -2.754,-1.008 -5.242,-3.229 -1.906,-1.748 -3.229,-3.868 -3.599,-4.503 -0.373,-0.637 -0.054,-1.005 0.264,-1.325 0.318,-0.263 0.638,-0.74 0.953,-1.11 0.318,-0.372 0.425,-0.638 0.636,-1.06 0.214,-0.424 0.106,-0.793 -0.052,-1.113 -0.008,-0.43 -1.331,-3.661 -1.86,-4.932 z"
       id="path36-1"
       inkscape:connector-curvature="0"
       style="fill:#ffffff" /><path
       d="m 48.424,19.127515 c -14.615,0 -26.808897,4.275372 -26.808897,18.945372 0,5.028 -4.231248,30.807402 16.019185,32.142227 l -3.714705,9.398242 15.041089,-8.341106 0.556997,-0.433353 C 54.076683,72.43094 60.95635,70.581428 65.287598,68.862158 71.691221,66.320267 73.78487,62.549296 74.487445,57.291544 75.243799,51.631338 75.281232,44.308198 74.349206,36.702299 74.350206,22.032299 63.094,19.127515 48.424,19.127515 z m 16.841563,46.584946 c -6.904074,3.899688 -11.693766,2.872438 -15.932687,2.166921 l -11.905678,7.879526 2.558813,-8.109176 C 21.503958,68.944186 24.863412,42.943887 25.193309,38.401784 26.083453,26.146067 36.191,23.363515 48.48,23.363515 c 12.234,0 22.243,1.101784 22.243,13.388784 0.371334,6.751082 0.984599,14.95118 0.44288,20.534911 -0.412387,4.250656 -1.038396,5.67905 -5.900317,8.425251 z"
       id="path34-7"
       inkscape:connector-curvature="0"
       style="fill:#ffffff"
       sodipodi:nodetypes="ssccccsscsscccsscss" /></g></g><g
   id="DO_NOT_EDIT_-_BOUNDING_BOX">
	<rect
   id="BOUNDING_BOX"
   fill="none"
   width="96"
   height="96" />
</g>



<g
   id="DO_NOT_EDIT_-_FOCAL_ZONE_GUIDES_ONLY">
</g>
</svg>