<?xml version="1.0" encoding="UTF-8" standalone="no"?>
<!-- Generator: Adobe Illustrator 15.0.0, SVG Export Plug-In . SVG Version: 6.00 Build 0)  -->

<svg
   xmlns:dc="http://purl.org/dc/elements/1.1/"
   xmlns:cc="http://creativecommons.org/ns#"
   xmlns:rdf="http://www.w3.org/1999/02/22-rdf-syntax-ns#"
   xmlns:svg="http://www.w3.org/2000/svg"
   xmlns="http://www.w3.org/2000/svg"
   xmlns:xlink="http://www.w3.org/1999/xlink"
   xmlns:sodipodi="http://sodipodi.sourceforge.net/DTD/sodipodi-0.dtd"
   xmlns:inkscape="http://www.inkscape.org/namespaces/inkscape"
   version="1.1"
   id="Layer_1"
   x="0px"
   y="0px"
   width="96px"
   height="96px"
   viewBox="0 0 96 96"
   enable-background="new 0 0 96 96"
   xml:space="preserve"
   inkscape:version="0.48.1 "
   sodipodi:docname="Entry01.svg"><metadata
   id="metadata43"><rdf:RDF><cc:Work
       rdf:about=""><dc:format>image/svg+xml</dc:format><dc:type
         rdf:resource="http://purl.org/dc/dcmitype/StillImage" /><dc:title></dc:title></cc:Work></rdf:RDF></metadata><defs
   id="defs41"><linearGradient
     id="SVGID_1_"
     gradientUnits="userSpaceOnUse"
     x1="147.0674"
     y1="-126.6172"
     x2="151.4568"
     y2="-95.996902"
     gradientTransform="matrix(2,0,0,-2,-337.36329,-182.88115)"><stop
       offset="0"
       style="stop-color:#29ADE3"
       id="stop18" /><stop
       offset="0.1804"
       style="stop-color:#076DB5"
       id="stop20-1" /><stop
       offset="0.3686"
       style="stop-color:#354F9E"
       id="stop22-7" /><stop
       offset="0.5804"
       style="stop-color:#3F4196"
       id="stop24-40" /><stop
       offset="0.749"
       style="stop-color:#3153A1"
       id="stop26-9" /><stop
       offset="1"
       style="stop-color:#29ADE3"
       id="stop28" /></linearGradient><linearGradient
     y2="-95.00721"
     x2="149.39494"
     y1="-124.88525"
     x1="150.03647"
     gradientTransform="matrix(2,0,0,-2,-250.9308,-178.91295)"
     gradientUnits="userSpaceOnUse"
     id="linearGradient3065"
     xlink:href="#SVGID_1_"
     inkscape:collect="always" /></defs><sodipodi:namedview
   pagecolor="#ffffff"
   bordercolor="#666666"
   borderopacity="1"
   objecttolerance="10"
   gridtolerance="10"
   guidetolerance="10"
   inkscape:pageopacity="0"
   inkscape:pageshadow="2"
   inkscape:window-width="1600"
   inkscape:window-height="837"
   id="namedview39"
   showgrid="false"
   inkscape:zoom="6.0625"
   inkscape:cx="28.955247"
   inkscape:cy="55.989633"
   inkscape:window-x="-8"
   inkscape:window-y="-8"
   inkscape:window-maximized="1"
   inkscape:current-layer="Layer_1" />
<g
   id="DO_NOT_EDIT_-_BOUNDING_BOX">
	<rect
   id="BOUNDING_BOX"
   width="96"
   height="96"
   fill="none" />
</g>
<g
   id="DO_NOT_EDIT_-_SHADOW"
   transform="translate(-81.814433,-5.9381443)">
	
</g>


<g
   id="DO_NOT_EDIT_-_FOCAL_ZONE_GUIDES_ONLY">
</g>
<path
   d="m 58.391251,10.872149 c 17.291,0 21.082196,15.007691 21.082196,32.298691 0,17.291 -3.791195,27.02134 -20.58735,29.330618 -5.282308,0.726257 -4.084959,-0.18036 -9.798547,-0.05713 l -15.796763,9.714454 3.060052,-9.235723 C 34.100583,70.402387 27.042968,71.567946 22.717076,66.181118 17.540546,59.735032 16.691499,47.53218 16.691499,43.17084 c -0.001,-17.291 3.789196,-31.803846 21.081196,-31.803846 z"
   id="path30"
   style="fill:url(#linearGradient3065)"
   inkscape:connector-curvature="0"
   sodipodi:nodetypes="csscccsccc" /><g
   transform="translate(-0.03876334,0.32989958)"
   id="Green-1"><linearGradient
     id="GREEN_3_1_-7"
     gradientUnits="userSpaceOnUse"
     x1="81.604446"
     y1="1402.2859"
     x2="82.099289"
     y2="1467.0901"
     gradientTransform="translate(-33.4395,-1393.7813)"><stop
       offset="0"
       style="stop-color:#31C200"
       id="stop10-4" /><stop
       offset="0.4424"
       style="stop-color:#128700"
       id="stop12-0" /><stop
       offset="0.6364"
       style="stop-color:#158000"
       id="stop14-9" /><stop
       offset="1"
       style="stop-color:#009E00"
       id="stop16-4" /></linearGradient><linearGradient
     id="HIGHLIGHT_GR3_1_-8"
     gradientUnits="userSpaceOnUse"
     x1="81.439499"
     y1="1401.7812"
     x2="81.439499"
     y2="1481.7812"
     gradientTransform="translate(-33.4395,-1393.7813)"><stop
       offset="0"
       style="stop-color:#31C200"
       id="stop20-8" /><stop
       offset="0.4424"
       style="stop-color:#128700"
       id="stop22-2" /><stop
       offset="0.6364"
       style="stop-color:#158000"
       id="stop24-4" /><stop
       offset="1"
       style="stop-color:#009E00"
       id="stop26-5" /></linearGradient><g
     id="PLACE_YOUR_GRAPHIC_HERE-5"
     transform="matrix(1.2388489,0,0,1.2655704,-11.285018,-16.131249)"><path
       enable-background="new    "
       d="m 41.541,37.131 c -0.529,-1.325 -1.063,-1.06 -1.48,-1.06 -0.426,0 -0.795,-0.052 -1.273,-0.052 -0.477,0 -1.109,0.159 -1.747,0.792 -0.636,0.638 -2.276,2.225 -2.276,5.403 0,3.177 2.33,6.304 2.647,6.728 0.317,0.427 4.503,7.205 11.124,9.802 6.67,2.594 6.67,1.743 7.838,1.643 1.164,-0.104 3.86,-1.592 4.396,-3.071 0.531,-1.53 0.531,-2.81 0.371,-3.067 -0.158,-0.271 -0.586,-0.427 -1.271,-0.74 -0.636,-0.317 -3.867,-1.909 -4.451,-2.118 -0.582,-0.214 -1.004,-0.315 -1.481,0.317 -0.422,0.635 -1.689,2.114 -2.063,2.541 -0.369,0.426 -0.738,0.479 -1.434,0.157 -0.635,-0.315 -2.753,-1.01 -5.241,-3.229 -1.906,-1.748 -3.229,-3.868 -3.599,-4.502 -0.373,-0.637 -0.055,-1.006 0.264,-1.324 0.318,-0.264 0.638,-0.74 0.953,-1.111 0.318,-0.372 0.425,-0.638 0.636,-1.06 0.214,-0.425 0.106,-0.794 -0.052,-1.113 -0.009,-0.434 -1.331,-3.664 -1.861,-4.936 z"
       id="path32-1"
       inkscape:connector-curvature="0"
       style="opacity:0.5" /><path
       d="m 48.424,19.127515 c -14.615,0 -26.808897,4.275372 -26.808897,18.945372 0,5.028 -4.231248,30.807402 16.019185,32.142227 l -3.714705,9.398242 15.041089,-8.341106 0.556997,-0.433353 C 54.076683,72.43094 60.95635,70.581428 65.287598,68.862158 71.691221,66.320267 73.78487,62.549296 74.487445,57.291544 75.243799,51.631338 74.349206,44.308198 74.349206,36.702299 74.350206,22.032299 63.094,19.127515 48.424,19.127515 z m 16.841563,46.584946 c -6.904074,3.899688 -11.693766,2.872438 -15.932687,2.166921 l -11.905678,7.879526 2.558813,-8.109176 C 21.503958,68.944186 24.863412,42.943887 25.193309,38.401784 26.083453,26.146067 36.191,23.363515 48.48,23.363515 c 12.234,0 22.243,1.101784 22.243,13.388784 0.371334,6.751082 0.984599,14.95118 0.44288,20.534911 -0.412387,4.250656 -1.038396,5.67905 -5.900317,8.425251 z"
       id="path34-7"
       inkscape:connector-curvature="0"
       style="fill:#ffffff"
       sodipodi:nodetypes="ssccccsscsscccsscss" /><path
       d="m 41.812,36.823 c -0.53,-1.325 -1.062,-1.06 -1.481,-1.06 -0.426,0 -0.795,-0.052 -1.273,-0.052 -0.477,0 -1.109,0.159 -1.747,0.792 -0.636,0.638 -2.276,2.225 -2.276,5.403 0,3.178 2.33,6.302 2.647,6.727 0.317,0.426 4.503,7.203 11.123,9.801 6.67,2.594 6.67,1.744 7.838,1.645 1.164,-0.104 3.861,-1.594 4.396,-3.072 0.529,-1.531 0.529,-2.811 0.371,-3.066 -0.158,-0.271 -0.586,-0.43 -1.271,-0.74 -0.635,-0.32 -3.867,-1.91 -4.451,-2.119 -0.582,-0.213 -1.004,-0.318 -1.48,0.318 -0.422,0.635 -1.689,2.111 -2.063,2.541 -0.369,0.426 -0.74,0.479 -1.433,0.154 -0.635,-0.313 -2.754,-1.008 -5.242,-3.229 -1.906,-1.748 -3.229,-3.868 -3.599,-4.503 -0.373,-0.637 -0.054,-1.005 0.264,-1.325 0.318,-0.263 0.638,-0.74 0.953,-1.11 0.318,-0.372 0.425,-0.638 0.636,-1.06 0.214,-0.424 0.106,-0.793 -0.052,-1.113 -0.008,-0.43 -1.331,-3.661 -1.86,-4.932 z"
       id="path36-1"
       inkscape:connector-curvature="0"
       style="fill:#ffffff" /></g></g></svg>