<?xml version="1.0"?>
<!-- Converted with SVG Converter - Version 0.9.5 (Compiled Mon May 30 09:08:51 2011) - Copyright (C) 2011 Nokia -->
<svg xmlns="http://www.w3.org/2000/svg" width="96px" x="0px" version="1.1" y="0px" height="96px" viewBox="0 0 96 96" xmlns:xlink="http://www.w3.org/1999/xlink" baseProfile="tiny" id="Livello_1" xml:space="preserve">
 <path fill-opacity="0.4" d="M88,49c0,29.633-10.363,40-40,40C18.365,89,8,78.633,8,49C8,19.365,18.365,9,48,9&#xd;&#xa;&#x9;C77.637,9,88,19.365,88,49z"/>
 <linearGradient gradientTransform="matrix(1 0 0 1 -2011.7822 -2703.7637)" id="SVGID_1_" y1="2711.7637" x1="2059.7832" y2="2791.7637" gradientUnits="userSpaceOnUse" x2="2059.7832">
  <stop offset="0" style="stop-color:#6CD94E"/>
  <stop offset="1" style="stop-color:#007B00"/>
 </linearGradient>
 <path fill="url(#SVGID_1_)" d="M88,48c0,29.633-10.363,40-40,40C18.365,88,8,77.633,8,48C8,18.365,18.365,8,48,8&#xd;&#xa;&#x9;C77.637,8,88,18.365,88,48z"/>
 <rect width="96" fill="none" height="96"/>
 <path stroke-opacity="0.07" fill="#231F20" fill-opacity="0.07" d="M75.438,79.652c-0.317,0-0.63-0.05-0.929-0.147l-13.69-4.396&#xd;&#xa;&#x9;c-4.115,2.053-8.589,3.094-13.303,3.094c-16.517,0-29.955-13.438-29.955-29.955c0-16.487,13.461-29.9,30.008-29.9&#xd;&#xa;&#x9;c16.487,0,29.901,13.437,29.901,29.953c0,5.001-1.243,9.907-3.598,14.213l4.409,13.186c0.362,1.081,0.089,2.255-0.711,3.063&#xd;&#xa;&#x9;C77.014,79.327,76.235,79.652,75.438,79.652z M51.526,59.123c2.817,1.018,4.049,1.256,4.584,1.256c0.105,0,0.146-0.009,0.363-0.061&#xd;&#xa;&#x9;c0.316-0.074,0.657-0.149,1.076-0.188c0.59-0.055,2.529-1.284,2.764-1.754c0.122-0.358,0.205-0.693,0.261-0.97&#xd;&#xa;&#x9;c-1.351-0.666-3.032-1.482-4.076-1.973c-0.582,0.729-1.305,1.578-1.855,2.215c-0.872,0.98-1.916,1.474-3.111,1.474&#xd;&#xa;&#x9;C51.529,59.123,51.528,59.123,51.526,59.123z M36.656,36.665c-0.022,0.017-0.055,0.044-0.097,0.086&#xd;&#xa;&#x9;c-0.698,0.701-1.87,1.876-1.87,4.403c0,2.154,1.324,4.469,2.198,5.762c-0.288-1.081-0.254-2.61,1.28-4.122&#xd;&#xa;&#x9;c0.176-0.156,0.336-0.36,0.49-0.557c0.168-0.215,0.33-0.42,0.494-0.61c0.016-0.019,0.028-0.033,0.041-0.05&#xd;&#xa;&#x9;c-0.017-0.078-0.03-0.156-0.04-0.235c-0.15-0.463-0.686-1.919-1.811-4.641c-0.054-0.003-0.107-0.006-0.161-0.01&#xd;&#xa;&#x9;C36.984,36.679,36.823,36.668,36.656,36.665z"/>
 <path stroke-opacity="0.07" fill="#231F20" fill-opacity="0.07" d="M75.438,78.902c-0.238,0-0.472-0.037-0.695-0.11l-13.987-4.491&#xd;&#xa;&#x9;c-4.085,2.092-8.537,3.152-13.239,3.152c-16.104,0-29.205-13.102-29.205-29.205c0-16.074,13.125-29.15,29.258-29.15&#xd;&#xa;&#x9;c16.074,0,29.151,13.101,29.151,29.203c0,4.991-1.266,9.872-3.664,14.138l4.515,13.499c0.271,0.812,0.066,1.691-0.533,2.297&#xd;&#xa;&#x9;C76.62,78.658,76.036,78.902,75.438,78.902z M36.561,35.914c-0.148,0-0.326,0.103-0.53,0.305c-0.73,0.732-2.091,2.097-2.091,4.936&#xd;&#xa;&#x9;c0,2.749,1.921,5.655,2.747,6.777c0.044,0.058,0.126,0.175,0.244,0.349c3.547,5.234,7.891,9.054,12.232,10.754&#xd;&#xa;&#x9;c3.567,1.39,5.905,2.095,6.948,2.095c0.197,0,0.304-0.025,0.538-0.081c0.303-0.071,0.602-0.137,0.969-0.17&#xd;&#xa;&#x9;c0.83-0.077,3.139-1.516,3.396-2.233c0.213-0.621,0.335-1.214,0.392-1.674l-0.306-0.14c-1.586-0.785-3.867-1.892-4.826-2.327&#xd;&#xa;&#x9;c-0.623,0.817-1.602,1.965-2.198,2.654c-0.719,0.809-1.573,1.215-2.544,1.215c-0.578,0-1.16-0.145-1.833-0.456&#xd;&#xa;&#x9;c-0.129-0.063-0.243-0.111-0.38-0.17c-1.23-0.527-3.708-1.589-6.511-4.09c-2.668-2.452-4.469-5.419-4.802-5.989&#xd;&#xa;&#x9;c-0.505-0.873-1.084-2.592,0.689-4.339c0.196-0.172,0.378-0.404,0.554-0.629c0.161-0.206,0.315-0.402,0.471-0.583&#xd;&#xa;&#x9;c0.111-0.129,0.159-0.21,0.275-0.444c-0.054-0.16-0.088-0.323-0.105-0.488c-0.101-0.33-0.62-1.805-2.037-5.21&#xd;&#xa;&#x9;c-0.21-0.006-0.415-0.019-0.625-0.032C36.997,35.928,36.791,35.914,36.561,35.914z"/>
 <path stroke-opacity="0.07" fill="#231F20" fill-opacity="0.07" d="M75.438,78.152c-0.157,0-0.313-0.024-0.461-0.073l-14.29-4.588&#xd;&#xa;&#x9;c-4.054,2.132-8.482,3.212-13.171,3.212c-15.69,0-28.455-12.765-28.455-28.455c0-15.66,12.789-28.4,28.508-28.4&#xd;&#xa;&#x9;c15.66,0,28.401,12.764,28.401,28.453c0,4.981-1.289,9.834-3.731,14.058l4.621,13.817c0.181,0.541,0.045,1.127-0.355,1.531&#xd;&#xa;&#x9;C76.226,77.99,75.837,78.152,75.438,78.152z M36.561,35.164c-0.358,0-0.705,0.171-1.059,0.523c-0.749,0.751-2.313,2.317-2.313,5.467&#xd;&#xa;&#x9;c0,2.971,2.023,6.04,2.893,7.222c0.046,0.061,0.12,0.167,0.228,0.325c3.631,5.358,8.098,9.276,12.579,11.031&#xd;&#xa;&#x9;c3.707,1.444,6.069,2.146,7.222,2.146c0.282,0,0.453-0.04,0.712-0.102c0.278-0.065,0.544-0.124,0.861-0.152&#xd;&#xa;&#x9;c1.016-0.095,3.652-1.657,4.036-2.728c0.358-1.043,0.462-1.931,0.473-2.391c-0.127-0.058-0.779-0.357-0.779-0.357&#xd;&#xa;&#x9;c-1.54-0.763-4.749-2.324-5.272-2.519c-0.022-0.008-0.072-0.024-0.127-0.043c-0.496,0.731-1.774,2.234-2.506,3.08&#xd;&#xa;&#x9;c-0.566,0.637-1.229,0.955-1.977,0.955c-0.466,0-0.948-0.123-1.519-0.387c-0.133-0.065-0.27-0.123-0.437-0.194&#xd;&#xa;&#x9;c-1.168-0.501-3.557-1.524-6.269-3.944c-2.586-2.376-4.331-5.256-4.655-5.809c-0.483-0.834-0.774-2.103,0.568-3.426&#xd;&#xa;&#x9;c0.218-0.188,0.425-0.454,0.626-0.71c0.146-0.187,0.293-0.374,0.441-0.546c0.198-0.23,0.275-0.389,0.444-0.735l0.084-0.172&#xd;&#xa;&#x9;c-0.007-0.018-0.018-0.041-0.032-0.069c-0.089-0.179-0.142-0.378-0.154-0.58c-0.08-0.311-0.68-1.99-2.127-5.464&#xd;&#xa;&#x9;c-0.07-0.175-0.126-0.292-0.168-0.368c-0.085,0.006-0.164,0.01-0.241,0.01c-0.28,0-0.545-0.016-0.818-0.034&#xd;&#xa;&#x9;C37.038,35.179,36.813,35.164,36.561,35.164z"/>
 <path stroke-opacity="0.07" fill="#231F20" fill-opacity="0.07" d="M75.438,77.402c-0.077,0-0.154-0.012-0.229-0.036L60.614,72.68&#xd;&#xa;&#x9;c-4.021,2.173-8.426,3.273-13.098,3.273c-15.277,0-27.705-12.429-27.705-27.705c0-15.247,12.452-27.65,27.758-27.65&#xd;&#xa;&#x9;c15.247,0,27.651,12.428,27.651,27.703c0,4.971-1.313,9.794-3.801,13.972l4.729,14.142c0.09,0.269,0.021,0.564-0.178,0.766&#xd;&#xa;&#x9;C75.829,77.324,75.636,77.402,75.438,77.402z M36.561,34.414c-0.559,0-1.093,0.25-1.587,0.741c-0.787,0.789-2.534,2.539-2.534,5.999&#xd;&#xa;&#x9;c0,3.194,2.125,6.425,3.039,7.666c0.046,0.062,0.113,0.158,0.21,0.302c3.716,5.483,8.307,9.499,12.927,11.309&#xd;&#xa;&#x9;c3.848,1.499,6.229,2.198,7.495,2.198c0.373,0,0.614-0.058,0.893-0.123c0.237-0.057,0.469-0.109,0.746-0.134&#xd;&#xa;&#x9;c1.271-0.118,4.174-1.82,4.677-3.221c0.544-1.585,0.563-2.869,0.478-3.136c-0.051-0.032-0.458-0.218-0.816-0.381l-0.359-0.166&#xd;&#xa;&#x9;c-1.171-0.58-4.719-2.315-5.326-2.541c-0.205-0.071-0.429-0.146-0.569-0.146c-0.051,0-0.156,0-0.37,0.283&#xd;&#xa;&#x9;c-0.458,0.699-1.778,2.253-2.521,3.112c-0.419,0.471-0.877,0.695-1.409,0.695c-0.354,0-0.737-0.102-1.204-0.317&#xd;&#xa;&#x9;c-0.128-0.063-0.282-0.129-0.473-0.21c-1.111-0.477-3.424-1.467-6.048-3.808c-2.5-2.297-4.193-5.091-4.507-5.628&#xd;&#xa;&#x9;c-0.764-1.32,0.116-2.187,0.447-2.513c0.236-0.201,0.467-0.497,0.69-0.783c0.139-0.178,0.278-0.355,0.418-0.518&#xd;&#xa;&#x9;c0.262-0.304,0.371-0.527,0.551-0.896l0.112-0.228c0.088-0.174,0.105-0.34-0.062-0.675c-0.052-0.104-0.079-0.218-0.079-0.334&#xd;&#xa;&#x9;c-0.044-0.291-0.747-2.219-2.183-5.665c-0.338-0.846-0.56-0.846-0.633-0.846c-0.063,0-0.125,0.006-0.185,0.011&#xd;&#xa;&#x9;c-0.097,0.008-0.192,0.015-0.283,0.015c-0.264,0-0.513-0.016-0.77-0.032C37.084,34.431,36.837,34.414,36.561,34.414z"/>
 <path stroke-opacity="0.3" fill="#231F20" fill-opacity="0.3" d="M70.599,62.182c2.475-4.033,3.872-8.77,3.872-13.881c0-14.9-12.051-26.953-26.901-26.953&#xd;&#xa;&#x9;c-14.9,0-27.008,11.998-27.008,26.9s12.107,26.955,26.955,26.955c4.735,0,9.146-1.184,13.021-3.336l14.901,4.785L70.599,62.182z&#xd;&#xa;&#x9; M63.132,59.404c-0.643,1.791-3.905,3.584-5.316,3.715c-1.41,0.125-1.41,1.152-9.474-1.99c-8.005-3.135-13.063-11.332-13.448-11.838&#xd;&#xa;&#x9;c-0.382-0.52-3.204-4.293-3.204-8.137c0-3.842,1.99-5.764,2.755-6.531c0.771-0.766,1.539-0.959,2.116-0.959&#xd;&#xa;&#x9;c0.572,0,1.024,0.064,1.533,0.064c0.51,0,1.153-0.322,1.794,1.281c0.639,1.533,2.24,5.441,2.24,5.953&#xd;&#xa;&#x9;c0.191,0.385,0.318,0.832,0.062,1.344c-0.254,0.51-0.382,0.834-0.766,1.279c-0.387,0.449-0.768,1.024-1.15,1.346&#xd;&#xa;&#x9;c-0.39,0.384-0.771,0.83-0.326,1.6c0.45,0.77,2.053,3.328,4.358,5.447c3.007,2.682,5.566,3.518,6.337,3.896&#xd;&#xa;&#x9;c0.83,0.385,1.278,0.32,1.73-0.188c0.442-0.512,1.98-2.299,2.49-3.074c0.581-0.77,1.096-0.635,1.799-0.389&#xd;&#xa;&#x9;c0.701,0.26,4.61,2.182,5.382,2.564c0.831,0.387,1.347,0.58,1.531,0.9C63.771,56.006,63.771,57.543,63.132,59.404z"/>
 <linearGradient id="SVGID_2_" y1="79.1641" x1="48.0005" y2="20.6967" gradientUnits="userSpaceOnUse" x2="48.0005">
  <stop offset="0" style="stop-color:#D0CBC5"/>
  <stop offset="0.5031" style="stop-color:#FAFCEF"/>
  <stop offset="0.9693" style="stop-color:#FFFFFF"/>
  <stop offset="1" style="stop-color:#FFFFFF"/>
 </linearGradient>
 <path fill="url(#SVGID_2_)" d="M70.599,61.182c2.475-4.033,3.872-8.77,3.872-13.88c0-14.901-12.051-26.954-26.901-26.954&#xd;&#xa;&#x9;c-14.9,0-27.008,11.999-27.008,26.901c0,14.902,12.107,26.955,26.955,26.955c4.735,0,9.146-1.184,13.021-3.336l14.901,4.785&#xd;&#xa;&#x9;L70.599,61.182z M63.132,58.404c-0.643,1.791-3.905,3.584-5.316,3.715c-1.41,0.125-1.41,1.152-9.474-1.99&#xd;&#xa;&#x9;c-8.005-3.135-13.063-11.332-13.448-11.838c-0.382-0.52-3.204-4.293-3.204-8.136c0-3.842,1.99-5.764,2.755-6.532&#xd;&#xa;&#x9;c0.771-0.766,1.539-0.959,2.116-0.959c0.572,0,1.024,0.065,1.533,0.065c0.51,0,1.153-0.322,1.794,1.281&#xd;&#xa;&#x9;c0.639,1.534,2.24,5.441,2.24,5.953c0.191,0.384,0.318,0.833,0.062,1.344c-0.254,0.51-0.382,0.833-0.766,1.279&#xd;&#xa;&#x9;c-0.387,0.449-0.768,1.024-1.15,1.345c-0.39,0.384-0.771,0.83-0.326,1.6c0.45,0.769,2.053,3.328,4.358,5.447&#xd;&#xa;&#x9;c3.007,2.682,5.566,3.518,6.337,3.896c0.83,0.385,1.278,0.32,1.73-0.188c0.442-0.512,1.98-2.299,2.49-3.074&#xd;&#xa;&#x9;c0.581-0.77,1.096-0.635,1.799-0.389c0.701,0.26,4.61,2.182,5.382,2.564c0.831,0.387,1.347,0.58,1.531,0.9&#xd;&#xa;&#x9;C63.771,55.006,63.771,56.543,63.132,58.404z"/>
 <linearGradient gradientTransform="matrix(1 0 0 1 -2011.7822 -2703.7637)" id="SVGID_3_" y1="2712.0176" x1="2059.7832" y2="2791.2632" gradientUnits="userSpaceOnUse" x2="2059.7832">
  <stop offset="0" style="stop-color:#FFFFFF"/>
  <stop offset="1" style="stop-color:#FFFFFF;stop-opacity:0"/>
 </linearGradient>
 <path fill="url(#SVGID_3_)" fill-opacity="0.25" d="M48,8C18.365,8,8,18.365,8,48c0,29.633,10.365,40,40,40&#xd;&#xa;&#x9;c29.637,0,40-10.367,40-40C88,18.365,77.637,8,48,8z M48,87C18.842,87,9,77.158,9,48S18.842,9,48,9s39,9.842,39,39S77.158,87,48,87z&#xd;&#xa;&#x9;"/>
</svg>
