<?xml version="1.0"?>
<!-- Converted with SVG Converter - Version 0.9.5 (Compiled Mon May 30 09:08:51 2011) - Copyright (C) 2011 Nokia -->
<svg xmlns="http://www.w3.org/2000/svg" width="96px" x="0px" y="0px" version="1.1" viewBox="-8 -8 96 96" height="96px" baseProfile="tiny" xmlns:xlink="http://www.w3.org/1999/xlink" id="svg2" xml:space="preserve">
 <metadata id="metadata29"/>
 <defs id="defs4"/>
 <linearGradient gradientTransform="matrix(1 0 0 -1 8.3999 56.1602)" id="SHADOW_3_" y1="16.1602" x1="-8.3999" y2="16.1602" gradientUnits="userSpaceOnUse" x2="71.5996">
  <stop offset="0" style="stop-color:#6CD94E" id="stop7"/>
  <stop offset="0.5153" style="stop-color:#1D9E11" id="stop9"/>
  <stop offset="1" style="stop-color:#6CD94E" id="stop11"/>
 </linearGradient>
 <path fill="url(#SHADOW_3_)" id="SHADOW_2_" d="M80,40c0,29.633-10.364,40-40,40C10.365,80,0,69.633,0,40C0,10.366,10.366,0,40,0  C69.636,0,80,10.365,80,40z"/>
 <linearGradient gradientTransform="translate(358.11945,-223.00289)" id="SVGID_1_" y1="249.7373" x1="-180.0347" y2="293.9245" gradientUnits="userSpaceOnUse" x2="-180.0347">
  <stop offset="0" style="stop-color:#6CD94E" id="stop17"/>
  <stop offset="0.5153" style="stop-color:#1D9E11" id="stop19"/>
  <stop offset="1" style="stop-color:#6CD94E" id="stop21"/>
 </linearGradient>
 <g style="fill:#008000;fill-opacity:1" id="g5801" transform="matrix(0.13220336,0,0,0.1380513,-0.0677807,-0.02660632)">
  <path style="fill:#008000;fill-opacity:1" id="path2390" d="m 298.91414,568.28848 c 5.44894,-32.73169 7.48964,-77.44577 3.8211,-77.44577 -0.94381,0 -4.72509,1.92561 -8.40286,4.27914 -8.82735,5.64895 -31.67135,17.74214 -33.51481,17.74214 -0.79899,0 -1.89708,-0.79406 -2.44022,-1.76459 -0.83358,-1.48951 -2.65463,-0.91991 -11.68267,3.6542 -9.36265,4.74365 -11.02221,5.24376 -13.32008,4.01397 -2.2652,-1.21229 -3.80453,-0.83949 -11.23276,2.72038 -9.45406,4.53074 -10.58717,4.75912 -13.7652,2.77441 -1.76776,-1.10399 -3.08847,-0.81336 -7.22812,1.59057 -8.22041,4.77367 -10.07744,5.03022 -10.95992,1.51412 -0.41604,-1.65763 -1.08536,-2.83414 -1.48738,-2.61448 -6.8873,3.76326 -13.38213,5.96192 -18.11616,6.13279 -6.5946,0.23803 -13.43173,2.224 -30.49982,8.85924 -6.57558,2.55627 -12.19459,4.40876 -12.48669,4.11665 -1.37312,-1.37312 1.73296,-4.49233 13.33027,-13.38667 6.9034,-5.29443 13.53162,-10.52825 14.72936,-11.6307 1.19775,-1.10244 3.46697,-2.8987 5.04273,-3.9917 1.58087,-1.09655 2.87958,-3.15631 2.89754,-4.59551 0.025,-2.00661 1.5858,-3.38459 6.76641,-5.97389 4.24702,-2.1227 6.2178,-3.68463 5.33642,-4.22934 -2.63737,-1.62999 -0.0538,-4.35084 6.43761,-6.77957 3.57382,-1.33714 7.52139,-2.43116 8.7724,-2.43116 2.59589,0 2.73662,-0.44802 1.1008,-3.50459 -1.03015,-1.92485 -0.56925,-2.36429 3.76679,-3.59151 2.71731,-0.76907 7.9161,-1.44291 11.55285,-1.49741 6.14201,-0.092 6.56843,-0.27429 5.99546,-2.56234 -0.57508,-2.29649 -0.042,-2.51483 7.87539,-3.22547 4.72892,-0.42445 10.20775,-0.25428 12.36347,0.38401 3.10152,0.91834 3.75224,0.83612 3.27271,-0.41353 -0.9491,-2.47332 5.12975,-3.08757 23.55415,-2.38005 l 16.8215,0.64598 -11.59015,-4.10514 c -10.97136,-3.88595 -35.86759,-11.60362 -46.68531,-14.47214 -2.72843,-0.72349 -4.767,-1.68227 -4.53016,-2.13061 0.85895,-1.62599 -3.35989,-4.3003 -7.31843,-4.63912 -2.22909,-0.19081 -8.5675,-1.14871 -14.08535,-2.12867 -8.42693,-1.49663 -10.16275,-2.18303 -10.84662,-4.28916 -0.44779,-1.37906 -0.75363,-3.07698 -0.67965,-3.77317 0.074,-0.69617 -4.3868,-2.21461 -9.91288,-3.37428 -10.70214,-2.24592 -14.93054,-4.9059 -13.74356,-8.64577 0.5469,-1.72314 -0.0818,-2.30973 -3.12801,-2.91842 -10.62552,-2.12315 -15.78637,-4.1866 -17.67314,-7.06618 -1.85438,-2.83014 -1.852,-3.13149 0.0412,-5.22343 1.71291,-1.89275 1.74727,-2.22002 0.2331,-2.22002 -0.97678,0 -5.52026,-0.84558 -10.0966,-1.87903 -6.23498,-1.40804 -8.773,-2.56947 -10.1254,-4.63348 -1.69249,-2.58306 -1.63433,-2.89641 0.93461,-5.03648 1.50666,-1.25515 2.34822,-2.36461 1.87012,-2.46551 -0.47809,-0.10089 -1.26042,-0.25471 -1.73852,-0.34183 -4.94948,-0.90186 -19.157646,-7.28057 -21.302484,-9.56366 -2.672294,-2.84457 -2.687025,-2.96808 -0.540889,-4.53738 2.168899,-1.58596 2.168899,-1.62621 0,-2.38086 -5.858784,-2.03854 -12.759905,-5.36735 -14.623242,-7.05365 -2.216349,-2.00577 -2.830673,-6.15068 -0.911611,-6.15068 3.094071,0 0.466005,-2.01905 -5.781131,-4.44143 -3.817087,-1.48011 -8.032423,-4.07971 -9.367434,-5.7769 l -2.427302,-3.08581 2.427139,-1.61155 c 2.320058,-1.54047 2.082101,-1.81318 -5.394077,-6.18201 -8.48957,-4.96102 -9.838014,-6.33411 -8.968961,-9.13281 0.368682,-1.1873 -0.534654,-2.33783 -2.560136,-3.26071 -4.917387,-2.2405 -12.05089,-8.31298 -11.704959,-9.96399 0.458831,-2.18987 -12.951155,-12.54143 -26.833137,-20.71326 -9.0815405,-5.34599 -11.4480979,-7.20374 -9.53480801,-7.48485 1.39973041,-0.20565 5.27094381,0.50974 8.60271701,1.58976 7.10112,2.30187 30.66346,11.61809 33.538547,13.26066 1.090343,0.62293 2.731055,0.84534 3.646016,0.49424 0.914961,-0.35111 4.977644,1.08789 9.02818,3.19776 4.050543,2.10987 7.755786,4.01373 8.233879,4.23079 0.478094,0.21706 0.869261,-0.43113 0.869261,-1.44045 0,-1.00931 0.286683,-1.8351 0.637064,-1.8351 1.441084,0 8.34362,4.02107 12.470639,7.26476 4.313911,3.39059 4.429905,3.41352 5.060988,1.00022 0.35525,-1.35845 1.058818,-2.46991 1.563488,-2.46991 1.390829,0 13.594373,10.17965 14.217158,11.8593 0.310859,0.83842 1.102246,0.0672 1.843005,-1.79611 l 1.2982,-3.26546 3.76577,2.65967 c 2.07116,1.46282 6.2189,5.09981 9.21719,8.08221 l 5.45144,5.42253 1.30278,-3.94747 c 0.71653,-2.17112 1.58038,-3.94748 1.91965,-3.94748 1.15494,0 13.67754,11.81603 17.33966,16.3613 l 3.64863,4.52849 1.21689,-3.4908 c 0.66931,-1.91995 1.7058,-3.49081 2.30333,-3.49081 1.57548,0 15.26574,14.8916 16.37428,17.81116 0.90944,2.39517 0.98415,2.37304 2.41635,-0.7157 0.81284,-1.75301 2.11669,-3.18729 2.89747,-3.18729 1.76057,0 15.57622,14.62695 15.63996,16.55837 0.0255,0.77349 0.82451,-0.0279 1.77553,-1.78093 0.95103,-1.75301 2.11802,-3.18729 2.5933,-3.18729 1.21805,0 12.29876,12.74842 15.13631,17.41439 l 2.36156,3.88328 1.18442,-3.11524 c 0.65142,-1.71338 1.66097,-3.11524 2.24343,-3.11524 1.32783,0 15.2098,18.27936 15.26563,20.10129 0.0226,0.73726 0.67452,0.20126 1.44877,-1.19111 0.77423,-1.39237 1.75134,-2.69626 2.17135,-2.89753 0.91884,-0.44031 14.3807,16.77237 16.87272,21.5739 1.75273,3.37708 1.76975,3.38177 3.11927,0.86015 1.34165,-2.50689 1.40354,-2.48639 5.49616,1.81996 2.27658,2.39548 6.24451,7.0726 8.81761,10.39362 4.99058,6.44119 19.08631,19.94247 25.76319,24.67671 l 4.0409,2.86519 -2.59213,-3.64031 c -1.42567,-2.00216 -2.59212,-3.97958 -2.59212,-4.39424 0,-0.41466 -2.0464,-3.76741 -4.54757,-7.45054 -4.70893,-6.93419 -13.28488,-15.91183 -27.40841,-28.69221 -4.5079,-4.07918 -8.86585,-9.1007 -9.68435,-11.15892 -1.35886,-3.41703 -3.42555,-5.36104 -15.98475,-15.03589 -3.40332,-2.6217 -7.27974,-7.78747 -7.27974,-9.70108 0,-0.24586 0.91272,-0.47437 2.02827,-0.50781 1.62664,-0.0488 1.46115,-0.45039 -0.83571,-2.02827 -9.80083,-6.73294 -19.07769,-14.45875 -20.38329,-16.97529 -1.31507,-2.53481 -1.25829,-3.073 0.42351,-4.01419 1.0682,-0.5978 1.68576,-1.30007 1.37234,-1.56059 -0.31342,-0.26053 -4.22075,-2.9982 -8.68296,-6.08372 -10.31481,-7.13248 -14.72374,-12.16069 -10.66293,-12.16069 0.8287,0 2.10097,-0.59425 2.82728,-1.32056 0.98807,-0.98807 -0.33969,-2.39549 -5.27352,-5.58988 -6.29919,-4.0784 -14.12767,-11.76216 -14.12767,-13.86651 0,-0.54618 1.30389,-1.32029 2.89754,-1.72027 1.59364,-0.39999 2.89753,-1.14845 2.89753,-1.66327 0,-0.51481 -3.18267,-3.2417 -7.07262,-6.05977 -3.88994,-2.81806 -7.79441,-6.51951 -8.67658,-8.22544 -1.5457,-2.98905 -1.47825,-3.12931 1.85707,-3.86186 4.42317,-0.97149 4.36038,-1.87789 -0.3058,-4.41487 -5.01392,-2.72605 -15.96749,-12.60034 -15.95018,-14.37858 0.008,-0.77647 1.35684,-2.11548 2.99843,-2.97559 l 2.98469,-1.56384 -4.77878,-3.16245 c -5.83218,-3.85956 -13.93977,-11.08118 -13.93977,-12.41648 0,-0.53769 1.98254,-1.57161 4.40566,-2.2976 l 4.40566,-1.31996 -10.20074,-10.05618 c -5.6104,-5.5309 -10.20073,-10.89771 -10.20073,-11.92624 0,-1.2191 1.41016,-2.1346 4.05106,-2.63004 l 4.05105,-0.75999 -7.33403,-7.19234 c -9.13532,-8.95885 -10.08008,-11.06709 -5.38068,-12.00697 1.89948,-0.37989 3.45359,-0.88366 3.45359,-1.1195 0,-0.23584 -2.5581,-3.60336 -5.68466,-7.48338 -5.84591,-7.25471 -7.86973,-11.48779 -5.50723,-11.51907 0.73714,-0.01 2.10587,-0.50196 3.0416,-1.09376 1.445,-0.9139 1.3487,-1.39147 -0.6391,-3.16955 -3.81197,-3.40978 -8.59584,-10.27981 -8.59584,-12.34431 0,-1.2917 0.98074,-1.91888 3.00056,-1.91888 l 3.00058,0 -3.05596,-3.6318 c -3.6154,-4.29664 -7.581236,-11.77024 -7.581236,-14.28675 0,-0.99276 0.996336,-1.7847 2.245336,-1.7847 2.10184,0 2.02777,-0.47986 -1.159014,-7.50814 -3.488241,-7.69316 -4.461025,-12.98497 -2.121171,-11.53886 0.854912,0.52836 1.033482,0.006 0.535013,-1.56424 -0.411497,-1.29651 -1.737584,-5.92545 -2.946865,-10.28652 -1.209281,-4.36107 -5.361706,-14.81348 -9.227623,-23.22756 -3.865905,-8.414103 -7.028925,-15.666339 -7.028925,-16.116091 0,-2.308214 5.830863,5.154033 15.873181,20.314251 6.155384,9.29239 12.355634,17.99918 13.778334,19.34845 1.4227,1.34926 3.97938,5.39702 5.68151,8.99503 1.70214,3.59801 3.59862,6.23046 4.21441,5.84989 0.6158,-0.38059 1.9198,-0.0279 2.89778,0.78378 2.17646,1.80629 6.75997,10.80697 7.89379,15.50107 l 0.83298,3.4486 2.05918,-2.72991 2.05917,-2.72991 1.80954,2.58347 c 0.99524,1.42092 2.76733,5.65666 3.93798,9.41279 2.11922,6.79969 3.3975,8.014 5.85221,5.55929 0.7094,-0.7094 1.79342,-0.9786 2.4089,-0.5982 1.67927,1.03784 5.21372,8.90159 5.95962,13.25946 l 0.65688,3.83785 2.75135,-2.56797 c 2.67063,-2.49264 2.78875,-2.50322 4.02647,-0.36079 2.57718,4.46098 6.40783,14.7363 7.16543,19.22049 l 0.77919,4.61197 2.56511,-2.40979 c 1.4108,-1.32538 3.14163,-2.40978 3.84627,-2.40978 1.36216,0 4.94401,13.95704 4.94401,19.26481 l 0,3.16053 2.99094,-2.80982 c 2.89492,-2.71959 3.04224,-2.73967 4.58852,-0.62503 0.87866,1.20162 1.92602,4.37506 2.32746,7.05208 1.09161,7.27932 2.17551,8.53151 5.09662,5.88793 1.31774,-1.19253 2.63849,-1.92565 2.935,-1.62915 1.21277,1.21278 6.18607,15.8222 6.9464,20.40554 0.44942,2.7092 1.12885,4.92581 1.50983,4.92581 0.38096,0 1.89774,-1.13209 3.3706,-2.51577 1.47285,-1.38368 3.00362,-2.19005 3.40171,-1.79195 1.21166,1.21166 3.88403,13.88145 3.90329,18.50565 0.0192,4.61484 1.13718,5.44896 3.49515,2.60778 0.79356,-0.95618 1.86009,-1.73852 2.37005,-1.73852 1.25089,0 3.22325,6.22768 4.9703,15.69361 1.33617,7.23968 1.58073,7.67214 3.34245,5.91043 1.04543,-1.04544 2.14299,-1.90079 2.43903,-1.90079 1.11495,0 6.94521,19.37698 7.61824,25.31937 l 0.7017,6.19563 3.19043,-2.51542 c 2.3782,-1.87504 3.31394,-2.12455 3.67551,-0.98006 0.26678,0.84444 2.13422,6.62173 4.14987,12.83839 2.01563,6.21668 4.01255,13.6973 4.43759,16.6236 l 0.7728,5.32055 3.13174,-2.46608 3.13173,-2.46609 1.1444,4.38674 c 2.79163,10.70089 4.62275,18.65587 5.34509,23.2207 0.77233,4.88072 2.0082,6.13731 3.56255,3.62232 1.03338,-1.67205 3.09186,4.1948 7.37055,21.00675 3.07509,12.08279 9.35279,28.95258 15.31117,41.14502 l 2.26561,4.63606 -0.53608,-9.27212 c -0.30319,-5.2438 -1.80661,-13.30044 -3.46051,-18.54424 -1.60842,-5.09966 -3.72759,-13.18379 -4.70927,-17.96472 -1.55119,-7.55458 -1.56635,-8.85722 -0.11578,-9.94991 1.04451,-0.78682 1.26042,-1.66595 0.577,-2.34937 -1.07259,-1.07259 -9.2584,-23.88973 -9.2584,-25.80685 0,-0.53841 1.2521,-0.73957 2.78244,-0.44704 l 2.78243,0.53191 -4.46145,-11.08651 c -2.45379,-6.09759 -4.80705,-12.92871 -5.22945,-15.18031 -0.71976,-3.83663 -0.57788,-4.09379 2.25853,-4.09379 1.66458,0 3.02652,-0.16317 3.02652,-0.3626 0,-0.19942 -1.27161,-2.99851 -2.82581,-6.22019 -2.58148,-5.35118 -6.44631,-18.00813 -6.44631,-21.1111 0,-0.70482 1.62047,-1.28148 3.60105,-1.28148 2.98213,0 3.4543,-0.34859 2.74727,-2.02827 -2.82987,-6.72281 -7.50287,-19.65223 -8.12263,-22.47397 -0.69578,-3.16789 -0.54354,-3.31411 3.4505,-3.31411 l 4.17841,0 -1.63963,-3.18729 c -1.97246,-3.83428 -6.533,-18.37253 -6.533,-20.82614 0,-1.28842 0.92725,-1.6119 3.52683,-1.23036 2.88865,0.42397 3.37858,0.18563 2.70763,-1.31722 -1.68349,-3.77074 -6.03571,-17.04043 -6.81902,-20.7908 l -0.8122,-3.88875 4.92933,0.8328 c 4.51767,0.76326 4.85154,0.65245 3.99768,-1.32681 -2.92673,-6.78423 -5.26027,-14.91039 -5.93825,-20.67899 l -0.77195,-6.56806 4.14273,0.77717 4.14272,0.77718 -2.78672,-6.77769 c -1.5327,-3.72773 -2.79909,-8.53795 -2.81422,-10.68937 -0.0265,-3.76155 0.11062,-3.88404 3.5718,-3.19181 3.05414,0.61082 3.48536,0.42291 2.84699,-1.24066 -5.22743,-13.62243 -5.1996,-17.32355 0.12621,-16.78856 l 3.63977,0.36564 -1.75366,-5.0017 c -0.96452,-2.75092 -1.82799,-7.60946 -1.91885,-10.79675 l -0.16519,-5.79507 4.46216,0.26852 c 3.84007,0.23108 4.34183,-0.0113 3.59907,-1.73853 -0.47469,-1.10388 -1.11367,-6.90173 -1.41994,-12.88412 l -0.55687,-10.8771 4.19225,0.78647 c 4.13682,0.77608 4.17704,0.7465 3.04261,-2.23728 -1.41898,-3.73219 -1.47176,-12.15965 -0.0898,-14.34212 0.56337,-0.8897 1.85927,-1.29723 2.8798,-0.90563 1.57182,0.60317 1.85549,-0.33108 1.85549,-6.11089 0,-7.793685 0.76397,-10.569157 2.7037,-9.82229 0.96007,0.369666 1.23566,-1.367256 0.94921,-5.982506 -0.38211,-6.156194 -0.27381,-6.462198 2.02827,-5.731546 2.23271,0.708636 2.43192,0.328849 2.43192,-4.6364 0,-2.974544 0.72844,-7.051756 1.61875,-9.060468 0.89032,-2.008713 2.22207,-9.12855 2.95945,-15.82186 1.55067,-14.075476 4.42084,-34.93566 5.50171,-39.986006 L 318.75237,0 l 0.84701,2.897537 c 0.46586,1.593645 0.89901,9.389376 0.96255,17.323846 0.14017,17.502652 2.29153,40.938515 3.84873,41.925962 0.62412,0.395762 0.95219,3.650059 0.72905,7.231772 -0.36838,5.913151 -0.20733,6.44908 1.75069,5.826002 2.00321,-0.637455 2.12631,-0.02363 1.73284,8.640684 -0.39788,8.761519 -0.2827,9.313198 1.90015,9.101133 2.09274,-0.203325 2.32348,0.465472 2.32129,6.728324 -10e-4,3.82475 -0.43412,8.14797 -0.96174,9.60716 -0.88443,2.446 -0.71235,2.5911 2.20464,1.85897 l 3.16395,-0.7941 -0.61364,9.8359 c -0.3375,5.40974 -1.23256,10.99238 -1.98903,12.40584 -1.32756,2.48056 -1.23165,2.54297 2.75774,1.79456 l 4.13312,-0.77538 0,4.51246 c 0,4.26532 -2.05207,13.43917 -4.06893,18.1903 -0.93416,2.20061 -0.01,2.17205 6.2712,-0.19381 1.32435,-0.49883 1.50757,0.75595 0.99634,6.82337 -0.34453,4.08904 -1.42623,9.71303 -2.40377,12.49776 l -1.77734,5.06314 4.02886,-0.65379 c 2.773,-0.45 4.21328,-0.17321 4.62049,0.88795 0.50916,1.32683 -2.98277,12.91131 -5.91242,19.6145 -0.84205,1.92664 -0.55111,2.07242 2.70763,1.35667 3.54047,-0.77762 3.65105,-0.68174 3.65105,3.16529 0,4.62977 -3.63357,15.76822 -7.01158,21.49353 -2.83712,4.80854 -2.37546,5.5287 2.46293,3.84202 l 3.68278,-1.28381 -0.55527,5.77886 c -0.3054,3.17837 -2.16616,9.02893 -4.13502,13.00124 -1.96886,3.97231 -3.42195,7.38018 -3.22908,7.57304 0.19286,0.19286 1.74549,-0.17966 3.45028,-0.82783 6.60664,-2.51182 5.09645,5.48384 -4.88525,25.86495 -0.26708,0.54534 1.14087,0.63428 3.12879,0.19767 3.48415,-0.76525 3.61367,-0.65482 3.59488,3.06502 -0.0107,2.1224 -1.8274,8.29213 -4.03706,13.71052 -2.20966,5.41839 -4.02633,9.98201 -4.03706,10.14138 -0.0107,0.15936 1.32584,0.28975 2.97014,0.28975 2.76076,0 2.92971,0.28835 2.20701,3.7668 -0.43044,2.07174 -2.55811,7.50733 -4.72815,12.0791 -2.17004,4.57177 -3.94553,8.565 -3.94553,8.87386 0,0.30885 1.04311,0.28878 2.31803,-0.0446 3.65225,-0.95509 2.97293,4.7376 -1.73853,14.56875 -2.2311,4.65553 -4.05655,8.69282 -4.05655,8.97175 0,0.27893 1.30389,0.17989 2.89754,-0.2201 2.40447,-0.60347 2.89754,-0.31139 2.89754,1.71645 0,1.34402 0.52155,2.44367 1.15901,2.44367 0.63746,0 1.15901,-2.60778 1.15901,-5.79507 0,-4.27301 0.43866,-5.79507 1.67012,-5.79507 0.91857,0 1.99246,0.52155 2.38644,1.15901 1.76817,2.86096 3.93013,1.04566 3.79599,-3.18729 -0.16296,-5.14164 1.43141,-22.51652 2.17907,-23.74691 0.28622,-0.47101 1.71781,-0.0718 3.18133,0.88712 l 2.66092,1.74351 0.69118,-11.34514 c 0.7778,-12.76705 1.56133,-15.7727 3.86727,-14.83504 0.87393,0.35537 2.25682,0.91877 3.07308,1.25201 1.1024,0.45004 1.86462,-2.59767 2.96348,-11.84925 0.81362,-6.85032 1.74412,-12.71991 2.06774,-13.04353 0.32362,-0.32362 2.04976,0.2503 3.83588,1.2754 l 3.24749,1.8638 0.77684,-9.41916 c 0.42726,-5.18054 1.30974,-11.41362 1.96106,-13.85132 l 1.1842,-4.43215 3.83595,2.92581 3.83595,2.92583 0.73988,-6.29525 c 0.97095,-8.26126 2.862,-16.93744 4.14039,-18.99629 0.87003,-1.40117 1.46964,-1.35395 4.01905,0.31647 l 2.99644,1.96335 0.006,-4.37303 c 0.004,-2.40516 0.55355,-6.45924 1.22221,-9.00908 2.1454,-8.18124 2.05904,-8.06419 4.39207,-5.95283 3.2386,2.93089 4.81039,2.28818 4.81039,-1.96697 0,-5.00775 2.40934,-16.99901 3.41552,-16.99901 0.42762,0 1.7899,0.76575 3.02729,1.70166 3.33793,2.52467 3.59444,2.27368 3.81193,-3.72994 0.22355,-6.17108 3.23266,-17.67498 4.62331,-17.67498 0.49781,0 1.91752,0.76575 3.1549,1.70167 3.23582,2.44745 3.9875,2.18178 3.99479,-1.41191 0.009,-4.26096 1.96422,-10.7833 4.05516,-13.52498 1.60025,-2.09828 1.82004,-2.11287 3.87098,-0.25678 2.08941,1.89087 2.20141,1.77078 2.86514,-3.07156 0.37989,-2.77164 1.24307,-6.49217 1.91818,-8.26783 1.19165,-3.13429 1.31149,-3.17343 4.10739,-1.34148 2.79596,1.83198 2.87993,1.80453 2.87993,-0.94116 0,-1.55549 1.06144,-5.30441 2.35875,-8.33091 1.79506,-4.1877 2.68139,-5.1801 3.70885,-4.15264 1.99552,1.99552 3.20452,1.64517 3.20452,-0.9286 0,-1.25329 0.8808,-4.12576 1.95732,-6.38325 1.46718,-3.0767 2.483,-3.93769 4.05655,-3.43826 1.33925,0.42506 2.09924,0.0828 2.09924,-0.94525 0,-0.88635 2.25909,-5.22433 5.0202,-9.63998 7.9809,-12.76331 14.68305,-24.31553 14.68305,-25.308632 0,-1.78756 8.61186,-14.834942 9.00778,-13.64721 0.48241,1.447265 -2.02829,10.031202 -5.43489,18.581506 -3.863,9.695806 -10.66532,36.634196 -9.3611,37.071526 1.85628,0.62246 1.33111,5.14709 -1.16588,10.0448 -2.77266,5.43841 -2.7479,5.21557 -0.57951,5.21557 2.98388,0 2.11759,3.07933 -5.01842,17.83854 -0.27465,0.56806 0.87253,0.68852 2.54928,0.26768 2.76978,-0.69518 3.04865,-0.45623 3.04865,2.61228 0,1.8576 -1.9934,7.34387 -4.42978,12.19173 l -4.42979,8.8143 3.27077,0 c 2.67922,0 3.27077,0.50277 3.27077,2.77984 0,3.066 -5.56056,14.28495 -9.91144,19.99727 -2.95709,3.88238 -2.25642,5.03924 3.05215,5.03924 4.82465,0 2.20901,5.94229 -6.6322,15.06719 l -6.17638,6.37458 4.01798,1.17646 4.01799,1.17646 -2.40589,4.03911 c -1.32324,2.2215 -5.04708,6.74667 -8.27522,10.05592 l -5.86934,6.01682 3.11594,0.78206 c 4.40303,1.10508 3.18589,4.27106 -4.57923,11.91132 -3.4561,3.40052 -6.28382,6.39947 -6.28382,6.66433 0,0.26486 1.07826,0.48156 2.39614,0.48156 4.54665,0 0.66302,7.36898 -7.13633,13.54084 l -4.73722,3.74869 3.00019,0.753 c 1.6501,0.41415 3.00018,1.25231 3.00018,1.86256 0,1.39711 -2.38471,5.98109 -3.5127,6.75225 -0.46621,0.31873 -3.32346,2.86841 -6.34945,5.66596 -4.65537,4.30392 -5.21033,5.24957 -3.60724,6.1467 2.81256,1.57399 0.74589,4.72131 -9.46924,14.42071 -7.86186,7.46495 -8.46671,8.34533 -6.22263,9.05757 2.32908,0.73923 2.37914,0.99492 0.79458,4.05911 -0.9301,1.79861 -5.09843,6.2617 -9.26298,9.91797 -7.72086,6.77853 -8.98304,8.68271 -5.75529,8.68271 3.56398,0 0.38733,5.14191 -8.86476,14.34899 -5.04793,5.02339 -9.17807,9.32623 -9.17807,9.56187 0,0.23565 0.78233,0.42845 1.73852,0.42845 1.97795,0 2.32806,1.81687 0.56061,2.90922 -0.64786,0.40039 -0.9085,1.16394 -0.57919,1.69678 0.3293,0.53282 -3.54183,4.46293 -8.60252,8.73356 -5.0607,4.27064 -9.70399,9.14461 -10.31843,10.83104 -0.61445,1.68644 -5.05786,7.76026 -9.87426,13.49738 -11.53571,13.74092 -31.72637,43.41582 -25.62912,37.66798 11.93912,-11.25493 23.14089,-23.60218 28.44461,-31.35331 7.96974,-11.64738 8.93488,-12.60235 10.48175,-10.37122 0.87993,1.26916 1.36061,1.35768 1.78049,0.32786 2.01129,-4.93305 7.60432,-14.08935 12.57705,-20.5898 4.81989,-6.30067 6.01161,-7.28112 7.08185,-5.82641 1.75086,2.37981 2.40234,2.2041 3.18399,-0.85874 0.36604,-1.43428 2.78288,-5.41601 5.37075,-8.84829 2.58787,-3.43229 5.21311,-7.08318 5.83385,-8.11311 1.02218,-1.69597 1.28535,-1.67044 2.79018,0.27076 1.55176,2.00175 1.85224,1.77203 4.54822,-3.47704 1.58767,-3.09122 4.47609,-7.44585 6.4187,-9.67695 3.5936,-4.12729 4.07025,-4.08465 6.47814,0.5795 0.357,0.69151 0.87429,0.56497 1.28243,-0.31368 0.60309,-1.29839 12.72419,-18.57246 13.96697,-19.90468 0.26429,-0.28332 1.59217,0.59652 2.95085,1.95519 l 2.47031,2.47031 2.42331,-4.47815 c 2.66965,-4.93341 10.37538,-13.91992 11.93602,-13.91992 0.54435,0 1.61558,1.6581 2.38053,3.68467 l 1.39081,3.68467 3.20959,-4.75075 c 3.92074,-5.80336 11.62175,-14.20874 13.01805,-14.20874 0.56233,0 1.62487,1.82545 2.3612,4.05656 1.47915,4.48184 2.9609,5.19062 4.00092,1.9138 0.73396,-2.31248 17.14722,-17.5605 18.90246,-17.5605 0.58512,0 1.71659,1.43259 2.51436,3.18352 1.44693,3.17566 1.45528,3.17763 3.38378,0.79604 2.62772,-3.24509 16.4996,-13.25168 18.37047,-13.25168 0.82865,0 1.50663,0.95619 1.50663,2.12486 0,3.4916 1.24184,3.69276 4.2467,0.68789 2.84604,-2.84604 13.16634,-8.60782 15.41802,-8.60782 0.65865,0 1.19754,0.86316 1.19754,1.91815 0,1.72813 0.20094,1.74288 2.02828,0.14894 3.06824,-2.67636 7.48793,-4.75561 10.72089,-5.04364 1.59364,-0.14199 10.19933,-3.48824 19.12374,-7.43611 C 599.3021,274.22114 600,273.95397 600,275.18887 c 0,0.56349 -3.52051,3.78741 -7.82335,7.16424 -11.23293,8.81553 -24.07709,21.06241 -23.88567,22.77493 0.19942,1.78418 -7.96483,8.98004 -13.36668,11.7812 -3.90673,2.02587 -3.91555,2.04888 -1.44815,3.77711 2.36967,1.65978 2.38886,1.82362 0.4222,3.60341 -1.13318,1.02552 -5.07428,3.24442 -8.758,4.93088 -6.09462,2.79021 -6.50922,3.2064 -4.60463,4.62231 3.0959,2.30158 0.91662,4.96938 -7.62219,9.33084 -8.82344,4.50683 -9.33445,4.9903 -6.7834,6.41794 4.25748,2.38261 -2.23232,7.65007 -14.66277,11.90109 -2.02846,0.6937 -2.05001,0.89788 -0.29907,2.83267 1.53463,1.69575 1.6182,2.43943 0.44752,3.98276 -1.73402,2.28602 -17.3376,10.09949 -20.2413,10.13582 -1.7314,0.0216 -1.62229,0.3627 0.68331,2.13579 5.56625,4.28066 -0.67098,9.8521 -14.62362,13.06262 -6.34512,1.46002 -7.36474,2.48858 -4.21458,4.25151 3.86346,2.1621 -0.19013,5.55297 -11.3884,9.52651 -15.59558,5.53387 -15.46656,5.45205 -12.96215,8.21941 1.96803,2.17463 1.95389,2.36413 -0.348,4.66604 -1.59308,1.59306 -6.00588,3.13907 -13.13185,4.60067 -9.64741,1.97879 -13.6864,4.00701 -13.84063,6.95027 -0.0203,0.38689 -4.60047,2.41643 -10.17823,4.51009 -5.57776,2.09367 -11.25406,4.99522 -12.61399,6.4479 -3.41581,3.64876 -8.05376,5.85246 -34.03635,16.17228 -12.43043,4.93715 -25.46935,10.48594 -28.97537,12.33065 -5.82361,3.06413 -6.02396,3.29368 -2.31803,2.65593 2.2311,-0.38394 9.37958,-2.19391 15.88551,-4.02214 17.31653,-4.8661 20.04395,-5.27036 20.04395,-2.97096 0,1.69319 0.27676,1.7146 2.60778,0.20172 2.08253,-1.35161 10.79074,-3.34655 19.993,-4.58014 0.63746,-0.0854 0.98915,1.05761 0.78155,2.54014 -0.34755,2.48189 -0.1655,2.58206 2.29735,1.26398 2.37561,-1.27138 17.57275,-5.62698 19.81164,-5.67814 0.4781,-0.0109 0.86926,1.07904 0.86926,2.42216 0,1.84839 0.49245,2.25307 2.0257,1.66471 4.17676,-1.60278 13.19568,-3.13656 14.80722,-2.51816 0.95073,0.36484 1.37355,1.42007 0.97998,2.44571 -0.56665,1.47666 -0.19506,1.61591 2.04782,0.76739 1.50704,-0.57013 5.5503,-1.42104 8.98502,-1.89091 l 6.24494,-0.8543 -0.57757,3.02135 -0.57757,3.02134 7.95105,-0.73896 c 7.58574,-0.70503 7.95105,-0.62483 7.95105,1.74549 0,2.28069 0.60732,2.48446 7.40481,2.48446 6.34086,0 7.38169,0.29143 7.24385,2.02827 -0.0885,1.11556 0.49493,1.89657 1.2966,1.73559 0.80166,-0.16098 3.67023,0.20146 6.37458,0.80543 2.70435,0.60396 6.73832,1.4173 8.9644,1.80742 2.22606,0.39012 4.46859,1.46196 4.9834,2.38186 0.5148,0.91991 1.86185,1.67256 2.99345,1.67256 5.49933,0 29.97347,10.59956 31.98347,13.8518 0.2996,0.48477 -9.8115,0.82616 -22.46911,0.75865 -20.39537,-0.1088 -23.26998,0.10801 -25.26503,1.90551 -1.49201,1.34427 -4.1495,2.02828 -7.88029,2.02828 -4.15386,0 -6.31991,0.64896 -8.26498,2.47627 -2.30312,2.16367 -4.03637,2.48283 -13.73035,2.52827 -9.41343,0.0441 -11.04934,0.32748 -10.79643,1.87004 0.82784,5.04941 -3.00165,5.79046 -14.71639,2.8478 -6.89592,-1.73219 -7.57554,-1.7278 -9.36393,0.0606 -2.17435,2.17434 -6.43667,1.69038 -13.23174,-1.50238 -2.52763,-1.18764 -7.11441,-1.91706 -12.16966,-1.9353 -8.8209,-0.0318 -29.83715,-5.79787 -59.10975,-16.21739 -11.33317,-4.034 -16.16661,-5.22303 -19.50346,-4.79783 -8.16448,1.04037 -9.17993,-2.55659 -10.02049,20.64919 -0.80941,22.34575 -3.63228,47.11252 -8.20402,71.97908 -5.67425,4.84275 -3.98602,-5.86016 -3.15909,-10.94372 z m 13.41532,-89.22785 c -2.12897,-1.38197 -11.68701,-0.83523 -10.26461,0.58717 0.61579,0.61579 2.70853,1.07443 4.65054,1.01922 1.94202,-0.0552 3.53094,0.45014 3.53094,1.12301 0,0.74438 0.70221,0.64064 1.79338,-0.26496 1.43429,-1.19035 1.4923,-1.68382 0.28975,-2.46444 z m 14.57433,-68.241 c 0.96803,-1.94045 2.08383,-5.98252 2.47954,-8.98236 l 0.71948,-5.45425 -3.32301,6.37458 c -1.84766,3.54437 -3.10814,7.53239 -2.83904,8.98236 0.62583,3.37214 0.85758,3.30016 2.96303,-0.92033 z m 8.82312,-33.56985 c 1.99525,1.06783 2.18116,0.51915 2.53424,-7.47976 0.20957,-4.74766 -0.0548,-8.19374 -0.58759,-7.65795 -2.14603,2.15828 -8.51126,18.40885 -6.98052,17.82145 0.94981,-0.36448 1.64816,0.24975 1.76006,1.54806 0.10201,1.18376 0.39588,0.45658 0.65304,-1.61595 0.40476,-3.26214 0.75673,-3.61345 2.62077,-2.61585 z"/>
  <path style="fill:#008000;fill-opacity:1;fill-rule:nonzero;stroke:none" id="rect5798" d="m 298.58893,474.71771 17.74929,0 0,10.01977 -17.74929,0 0,-10.01977 z"/>
 </g>
 <path style="fill:#ffffff;opacity:0.54800011" id="path14" d="m 42.669714,11.55766 c -15.162019,0 -27.46923,12.306174 -27.46923,27.52421 0,5.215834 1.428442,10.056145 3.955445,14.177567 l -4.945084,14.776122 15.220111,-4.889067 c 3.954407,2.197125 8.459651,3.406682 13.2927,3.406682 15.163047,0 27.524199,-12.30721 27.524199,-27.525246 C 70.248893,23.809892 57.887741,11.55766 42.669714,11.55766 z m 0,50.655211 c -4.670184,0 -9.063393,-1.431554 -12.746013,-3.846522 l -8.845549,2.855845 2.9129,-8.569611 c -2.746922,-3.791542 -4.395283,-8.516706 -4.395283,-13.57175 0,-12.74705 10.382912,-23.128925 23.129962,-23.128925 12.691024,0 23.072898,10.382912 23.072898,23.128925 10e-4,12.74705 -10.382912,23.132038 -23.128915,23.132038 z"/>
 <path style="fill:#ffffff;opacity:0.54800011" id="path25" d="m 35.534768,28.201027 c -0.550837,-1.3745 -1.100637,-1.0996 -1.537363,-1.0996 -0.441916,0 -0.8247,-0.05395 -1.320556,-0.05395 -0.49482,0 -1.151468,0.164939 -1.812264,0.821587 -0.65976,0.661834 -2.362065,2.308121 -2.362065,5.604842 0,3.296723 2.417044,6.537428 2.746924,6.978306 0.32988,0.440876 4.671222,7.473124 11.538529,10.165067 6.919165,2.691943 6.919165,1.811226 8.130798,1.703341 1.207485,-0.107884 4.007312,-1.650435 4.559187,-3.186763 0.550837,-1.590268 0.550837,-2.911862 0.384859,-3.185724 -0.163901,-0.276975 -0.607891,-0.43984 -1.318481,-0.766608 -0.658722,-0.331954 -4.011462,-1.98239 -4.617278,-2.199198 -0.603743,-0.220958 -1.041507,-0.328843 -1.537365,0.329879 -0.437764,0.658723 -1.756246,2.196087 -2.141105,2.635927 -0.382786,0.44295 -0.767645,0.496894 -1.483422,0.165976 -0.658712,-0.328842 -2.856873,-1.046694 -5.439892,-3.35274 -1.977205,-1.8133 -3.349629,-4.011462 -3.733451,-4.670184 -0.386935,-0.660796 -0.05499,-1.042543 0.273862,-1.374498 0.32988,-0.272825 0.661834,-0.767645 0.988603,-1.151468 0.329879,-0.385896 0.440876,-0.661834 0.659758,-1.099598 0.221996,-0.43984 0.109957,-0.822625 -0.05394,-1.15458 -0.0032,-0.439839 -1.376574,-3.790504 -1.925337,-5.110023 z"/>
</svg>
