<?xml version="1.0" encoding="UTF-8" standalone="no"?>
<svg
   xmlns:svg="http://www.w3.org/2000/svg"
   xmlns="http://www.w3.org/2000/svg"
   xmlns:sodipodi="http://sodipodi.sourceforge.net/DTD/sodipodi-0.dtd"
   xmlns:inkscape="http://www.inkscape.org/namespaces/inkscape"
   height="512"
   id="Layer_1"
   version="1.1"
   viewBox="0 0 512 512"
   width="512"
   x="0"
   xml:space="preserve"
   y="0"
   inkscape:version="0.48.4 r9939"
   sodipodi:docname="5.5.svg"><sodipodi:namedview
     pagecolor="#ffffff"
     bordercolor="#666666"
     borderopacity="1"
     objecttolerance="10"
     gridtolerance="10"
     guidetolerance="10"
     inkscape:pageopacity="0"
     inkscape:pageshadow="2"
     inkscape:window-width="1920"
     inkscape:window-height="1028"
     id="namedview8"
     showgrid="false"
     inkscape:zoom="1.84375"
     inkscape:cx="262.59785"
     inkscape:cy="303.25645"
     inkscape:window-x="-8"
     inkscape:window-y="-8"
     inkscape:window-maximized="1"
     inkscape:current-layer="Layer_1" /><defs
     id="defs260" /><path
     d="M449.006,72.021C449.475,75.303,449.732,78.653,449.732,82.063L449.732,83.114C467.011,91.123,479.003,108.61,479.003,128.907L479.003,322.665C479.003,347.95,460.405,368.888,436.144,372.554L445.701,437.71L385.539,373.124L159.099,373.124C152.364,373.124,145.943,371.794,140.069,369.399L132.868,377.13C140.806,380.969,149.705,383.123,159.099,383.123L381.185,383.123L438.382,444.525L460.246,468L455.594,436.258L447.362,380.129C457.688,376.744,467.001,370.594,474.223,362.27C483.752,351.287,489,337.221,489,322.664L489,128.906C489,102.749,472.301,80.425,449.006,72.021z"
     id="path238"
     fill="#00CCFF"
     stroke="#FFFFFF" /><path
     d="M161.433,346.463L379.09,346.463C418.041,346.463,449.732,314.774,449.732,275.822L449.732,83.113L449.732,82.062C449.732,78.652,449.475,75.303,449.006,72.02C444.113,37.81,414.631,11.42,379.09,11.42L109.641,11.42C70.69,11.421,39,43.111,39,82.062L39,275.822C39,292.831,45.133,309.264,56.27,322.1C62.779,329.599,70.742,335.591,79.585,339.752L72.518,387.936L63.123,452L107.255,404.623L132.866,377.13L140.067,369.399L161.433,346.463zM92.486,390.866L102.042,325.709C77.78,322.044,59.183,301.105,59.183,275.821L59.183,82.062C59.183,54.195,81.774,31.604,109.641,31.604L379.087,31.604C406.955,31.604,429.545,54.195,429.545,82.062L429.545,275.821C429.545,303.688,406.955,326.279,379.087,326.279L152.648,326.279L92.486,390.866z"
     id="path240"
     fill="#FFFFFF"
     stroke="#000000"
     stroke-opacity="1" /><path
     stroke-miterlimit="4"
     d="M94.6397,384.6866C94.6671,383.7124,96.5651,370.2863,98.8575,354.851C101.1498,339.4156,102.6121,326.118,102.107,325.3007C101.6019,324.4834,98.4835,323.2727,95.1773,322.6102C85.0653,320.5839,71.6766,309.2201,66.132,297.9577L60.9627,287.4576L60.359,183.5457C59.6807,66.7819,59.9996,63.6488,74.0292,49.2029C90.218,32.5338,78.2549,33.6271,244.4549,33.6271L393.2352,33.6271L403.8551,40.1929C410.4348,44.2608,416.9731,50.7979,421.0409,57.3756L427.6068,67.9925L428.2281,174.2156C428.9263,293.5739,428.8643,294.1516,413.6714,309.8068C398.4324,325.5095,399.2325,325.4237,268.0774,325.4237L151.626,325.4237L140.0072,337.8983C103.4118,377.1894,94.5948,386.2825,94.6397,384.6865L94.6397,384.6865zM257.9867,259.9846C265.2913,256.0941,268.0049,251.3327,268.0801,242.2738C268.1328,235.935,266.6493,232.4715,261.8076,227.6298C255.6042,221.4264,254.9698,221.2882,232.6992,221.2882L209.9324,221.2882L207.4784,232.678C206.1287,238.9424,204.4507,248.2169,203.7495,253.2881L202.4746,262.5085L227.8613,262.5085C243.0002,262.5085,255.1608,261.4897,257.9867,259.9846L257.9867,259.9846zM343.3319,238.7938C351.8543,233.5972,354.2095,224.6196,349.8117,214.0943C345.2105,203.0821,340.6945,201.5239,315.4241,202.2292L293.2738,202.8475L289.4887,221.2882C287.4069,231.4305,285.6589,240.461,285.6043,241.3559C285.5497,242.2509,296.9763,242.9794,310.9966,242.975C332.3226,242.968,337.6065,242.2849,343.3319,238.7938zM187.1771,198.2916C191.8654,194.8041,193.4572,191.6438,193.9648,184.8152C195.3251,166.5128,185.9137,160.5424,155.7022,160.5424L136.404,160.5424L132.8512,178.4407C127.2233,206.7928,125.2003,204.5114,155.1771,203.6184C177.3333,202.9583,181.9328,202.1926,187.1771,198.2916L187.1771,198.2916zM264.3491,201.6496C279.2123,197.5219,283.4427,180.7766,272.6702,168.7122C266.3842,161.6724,266.1971,161.6224,243.3821,160.8873C230.7531,160.4804,220.4203,160.6606,220.4203,161.2878C220.4203,162.5034,214.6888,190.878,212.7924,199.0508C211.6741,203.8702,211.9427,203.9321,233.9383,203.9201C246.1916,203.9131,259.8764,202.8917,264.3491,201.6496L264.3491,201.6496zM356.4038,177.0282C361.3909,172.7385,362.4167,170.1746,362.2155,162.5025C362.0172,154.9389,360.6742,152.027,355.0781,147.0268C348.3426,141.0087,347.6809,140.8819,326.1531,141.4848L304.1213,142.1017L300.3362,160.5424C298.2543,170.6848,296.5064,179.7153,296.4518,180.6102C296.3971,181.5051,308.5015,182.2373,323.3503,182.2373C348.7234,182.2373,350.7123,181.9239,356.4039,177.0282zM199.6421,136.8422C207.5507,129.4035,207.4905,115.6618,199.5144,107.6857C194.0412,102.2125,192.7861,101.9661,170.38,101.9661L146.9653,101.9661L144.453,114.4407C143.0713,121.3017,141.1363,130.6521,140.153,135.2194L138.3652,143.5236L166.2078,142.8127C192.1928,142.1492,194.4234,141.7508,199.6422,136.8422zM280.4167,138.9971C288.939,133.8006,291.2943,124.823,286.8965,114.2977C282.2953,103.2854,277.7793,101.7272,252.5089,102.4326L230.3586,103.0508L226.5734,121.4915C224.4916,131.6339,222.7437,140.6644,222.6891,141.5593C222.6345,142.4542,234.061,143.1828,248.0814,143.1783C269.4074,143.1713,274.6912,142.4883,280.4167,138.9971L280.4167,138.9971z"
     id="path4019"
     stroke-opacity="1"
     stroke-width="0.2"
     stroke="#000000"
     fill="#000000"
     opacity="1" /><path
     d="m 272.7568,373.04 c -62.3184,-0.0185 -115.7223,-0.3205 -118.6754,-0.6711 -6.5561,-0.7783 -11.889,-2.1798 -11.889,-3.1244 0,-0.386 4.5146,-5.5436 10.0325,-11.4614 l 10.0325,-10.7594 115.1853,-0.2125 115.1854,-0.2124 5.6195,-1.7386 c 25.1471,-7.7801 43.0301,-26.0237 50.1625,-51.1742 l 1.7402,-6.1363 0.2106,-101.7602 0.2105,-101.7603 3.6271,1.988 c 5.972,3.2731 15.4537,13.4679 18.7217,20.1297 6.0436,12.3198 5.6153,3.1917 5.6153,119.6568 0,116.3534 0.4139,107.4526 -5.5646,119.6569 -3.9502,8.0638 -13.6375,17.7412 -21.665,21.6431 -3.164,1.5378 -7.771,3.3137 -10.2377,3.9462 -2.4667,0.6325 -4.657,1.3222 -4.8675,1.5327 -0.2104,0.2104 1.6839,14.4724 4.2097,31.6933 2.5258,17.221 4.5142,31.3977 4.4187,31.504 -0.0955,0.1062 -13.3569,-13.9592 -29.4699,-31.2566 l -29.28814,-31.45763 z"
     id="path3113"
     inkscape:connector-curvature="0"
     style="fill:#000000;stroke:#ffffff"
     sodipodi:nodetypes="cssscccssccccssscssscccc" /><path
     style="fill:#ffffff;fill-opacity:1;stroke:none"
     d="m 139.07278,142.22125 c 0.14916,-0.57039 2.05811,-9.74511 4.24212,-20.38828 l 3.97092,-19.35122 21.995,0.16819 c 25.14721,0.19229 24.56506,0.0917 29.50587,5.09738 8.27462,8.38321 8.40217,20.89927 0.29432,28.88138 -4.21735,4.15196 -7.36654,4.82537 -25.7035,5.49635 -33.96997,1.24301 -34.60509,1.24479 -34.30473,0.0962 z"
     id="path2986"
     inkscape:connector-curvature="0" /><path
     style="fill:#ffffff;fill-opacity:1;stroke:none"
     d="m 132.33671,202.64597 c -1.83099,-1.05412 -2.81869,-3.96517 -2.36072,-6.95773 0.43554,-2.84596 6.21166,-32.31353 6.58926,-33.61588 0.25348,-0.87426 1.43836,-0.94831 15.0183,-0.93856 20.42838,0.0147 28.05681,1.11736 34.53972,4.99273 5.55666,3.32166 8.0917,9.45891 7.44409,18.02183 -0.47888,6.33189 -1.29717,8.29565 -5.02084,12.04917 -2.86618,2.88915 -3.83117,3.49708 -7.07446,4.45674 -5.61879,1.66255 -12.30462,2.21115 -30.87421,2.53336 -14.49881,0.25157 -17.01285,0.177 -18.26114,-0.54166 z"
     id="path2988"
     inkscape:connector-curvature="0" /><path
     style="fill:#ffffff;fill-opacity:1;stroke:none"
     d="m 228.00407,142.16334 c -2.47065,-0.23088 -4.59171,-0.5194 -4.71348,-0.64117 -0.29692,-0.29692 7.1145,-37.33615 7.55998,-37.78162 0.55839,-0.55839 27.54118,-1.28824 35.16469,-0.95116 11.41213,0.50459 15.64281,2.48741 19.02,8.91422 5.93957,11.30302 4.2875,20.89251 -4.58758,26.62875 -5.54384,3.58316 -8.30399,3.96845 -29.51085,4.11946 -10.14237,0.0722 -20.46211,-0.0576 -22.93276,-0.28848 z"
     id="path2990"
     inkscape:connector-curvature="0" /><path
     style="fill:#ffffff;fill-opacity:1;stroke:none"
     d="m 215.03133,202.86361 c -0.9548,-0.29548 -1.86983,-0.75377 -2.03339,-1.01841 -0.16356,-0.26465 1.01932,-6.7896 2.62862,-14.49989 1.6093,-7.71029 3.36865,-16.43204 3.90966,-19.38166 0.54102,-2.94963 1.35404,-5.73334 1.80673,-6.18602 0.71663,-0.71664 3.06898,-0.77749 18.19152,-0.47057 18.58908,0.37726 23.54902,0.83889 26.79254,2.49361 2.98359,1.52211 7.84573,7.03988 9.92483,11.26314 1.61345,3.27739 1.80203,4.14387 1.80279,8.28356 5.4e-4,3.96447 -0.21511,5.06308 -1.51467,7.70945 -0.90818,1.84939 -2.71337,4.18091 -4.50458,5.81798 -3.40917,3.1158 -7.22737,4.56235 -14.52743,5.50382 -6.04374,0.77945 -40.2626,1.17015 -42.47662,0.48499 z"
     id="path2992"
     inkscape:connector-curvature="0" /><path
     style="fill:#ffffff;fill-opacity:1;stroke:none"
     d="m 202.93824,261.59779 c 0.006,-1.75332 3.12673,-19.84016 4.96551,-28.77909 l 2.26613,-11.01638 21.46822,0.16892 c 18.9265,0.14892 21.71283,0.27961 23.53421,1.1038 2.89704,1.31095 8.88988,7.22143 10.60062,10.45495 1.31101,2.47796 1.43477,3.24985 1.43493,8.94915 1.5e-4,5.7603 -0.11811,6.47815 -1.54635,9.38679 -1.88058,3.82983 -5.7326,7.07614 -9.75445,8.22063 -1.5404,0.43835 -5.72955,1.04671 -9.30921,1.35191 -7.48279,0.63797 -43.66172,0.77 -43.65961,0.15932 z"
     id="path2994"
     inkscape:connector-curvature="0" /><path
     style="fill:#ffffff;fill-opacity:1;stroke:none"
     d="m 301.76678,181.20571 c -2.47064,-0.22622 -4.59171,-0.51093 -4.71347,-0.63269 -0.29682,-0.29682 7.11441,-37.33606 7.55971,-37.78136 0.50243,-0.50243 28.14059,-1.30924 35.61381,-1.03963 5.0609,0.18257 6.79143,0.46206 8.7592,1.41464 3.8086,1.84372 9.3149,7.20944 11.07365,10.79094 1.39894,2.8488 1.52122,3.59917 1.52122,9.33509 0,5.64667 -0.1284,6.46628 -1.35593,8.65551 -0.74576,1.33001 -2.8182,3.59567 -4.60541,5.03479 -5.38828,4.3388 -5.74723,4.39473 -29.02171,4.52242 -11.18644,0.0614 -22.36042,-0.0735 -24.83107,-0.29971 z"
     id="path2996"
     inkscape:connector-curvature="0" /><path
     style="fill:#ffffff;fill-opacity:1;stroke:none"
     d="m 290.91932,241.95995 c -2.47064,-0.23088 -4.59171,-0.5194 -4.71347,-0.64117 -0.29693,-0.29692 7.1145,-37.33615 7.55997,-37.78162 0.55839,-0.55839 27.54118,-1.28824 35.1647,-0.95116 11.41212,0.50459 15.6428,2.48741 19.01999,8.91422 5.93957,11.30302 4.2875,20.89251 -4.58757,26.62875 -5.54385,3.58316 -8.304,3.96845 -29.51085,4.11946 -10.14238,0.0722 -20.46212,-0.0576 -22.93277,-0.28848 z"
     id="path2998"
     inkscape:connector-curvature="0" /></svg>