<?xml version="1.0" encoding="utf-8"?>
<!-- Generator: Adobe Illustrator 15.0.0, SVG Export Plug-In . SVG Version: 6.00 Build 0)  -->
<!DOCTYPE svg PUBLIC "-//W3C//DTD SVG 1.1//EN" "http://www.w3.org/Graphics/SVG/1.1/DTD/svg11.dtd">
<svg version="1.1" id="Layer_1" xmlns="http://www.w3.org/2000/svg" xmlns:xlink="http://www.w3.org/1999/xlink" x="0px" y="0px"
	 width="96px" height="96px" viewBox="0 0 96 96" enable-background="new 0 0 96 96" xml:space="preserve">
<g id="DO_NOT_EDIT_-_BOUNDING_BOX">
	<rect id="BOUNDING_BOX" fill="none" width="96" height="96"/>
</g>
<g id="DO_NOT_EDIT_-_SHADOW">
	<path id="SHADOW" opacity="0.4" enable-background="new    " d="M88.023,49c0,29.633-10.364,40-40,40c-29.635,0-40-10.367-40-40
		c0-29.634,10.366-40,40-40C77.659,9,88.023,19.365,88.023,49z"/>
</g>
<g id="White_BACKGROUNDS">
	<g id="White">
		
			<linearGradient id="White_2_" gradientUnits="userSpaceOnUse" x1="81.4395" y1="1401.791" x2="81.4395" y2="1481.7705" gradientTransform="matrix(1 0 0 1 -33.4395 -1393.7813)">
			<stop  offset="0" style="stop-color:#FFFFFF"/>
			<stop  offset="0.4424" style="stop-color:#F0F0F0"/>
			<stop  offset="0.6364" style="stop-color:#F0F0F0"/>
			<stop  offset="1" style="stop-color:#FFFFFF"/>
		</linearGradient>
		<path id="White_1_" fill="url(#White_2_)" d="M8,47.989c0,29.633,10.365,40,40,40c29.637,0,40-10.367,40-40
			c0-28.985-9.926-39.53-38.091-39.979h-3.817C17.928,8.459,8,19.004,8,47.989z"/>
		
			<linearGradient id="HIGHLIGHT_GR3_1_" gradientUnits="userSpaceOnUse" x1="81.4395" y1="1401.7813" x2="81.4395" y2="1481.7813" gradientTransform="matrix(1 0 0 1 -33.4395 -1393.7813)">
			<stop  offset="0" style="stop-color:#FFFFFF"/>
			<stop  offset="0.4424" style="stop-color:#F0F0F0"/>
			<stop  offset="0.6364" style="stop-color:#F0F0F0"/>
			<stop  offset="1" style="stop-color:#FFFFFF"/>
		</linearGradient>
		<path id="HIGHLIGHT_GR3" opacity="0.25" fill="url(#HIGHLIGHT_GR3_1_)" enable-background="new    " d="M48,8
			C18.365,8,8,18.365,8,48c0,29.633,10.365,40,40,40c29.637,0,40-10.367,40-40C88,18.365,77.637,8,48,8z M48,87.023
			C18.842,87.023,9,77.176,9,48S18.842,8.977,48,8.977S87,18.824,87,48S77.158,87.023,48,87.023z"/>
	</g>
</g>
<g id="PLACE_YOUR_GRAPHIC_HERE">
	<path opacity="0.5" fill="#129E0D" enable-background="new    " d="M48.693,20.769c-14.613,0-26.479,12.001-26.479,26.841
		c0,5.085,1.377,9.806,3.813,13.828l-4.768,14.41l14.672-4.769c3.813,2.144,8.153,3.321,12.814,3.321
		c14.614,0,26.53-12,26.53-26.842C75.279,32.718,63.363,20.769,48.693,20.769z M48.693,70.17c-4.501,0-8.734-1.398-12.285-3.753
		l-8.527,2.785l2.809-8.356c-2.646-3.697-4.236-8.307-4.236-13.236c0-12.432,10.008-22.556,22.298-22.556
		c12.232,0,22.242,10.125,22.242,22.556C70.991,60.041,60.98,70.17,48.693,70.17z"/>
	<path opacity="0.5" fill="#129E0D" enable-background="new    " d="M42.11,37.132c-0.529-1.325-1.063-1.06-1.48-1.06
		c-0.426,0-0.795-0.052-1.273-0.052c-0.477,0-1.109,0.159-1.747,0.792c-0.636,0.638-2.276,2.225-2.276,5.403
		c0,3.177,2.33,6.303,2.647,6.727c0.317,0.428,4.503,7.205,11.125,9.803c6.67,2.594,6.67,1.742,7.838,1.643
		c1.164-0.104,3.861-1.592,4.396-3.07c0.531-1.531,0.531-2.811,0.371-3.068c-0.158-0.27-0.586-0.426-1.271-0.74
		c-0.635-0.318-3.867-1.91-4.451-2.119c-0.581-0.213-1.004-0.315-1.479,0.318c-0.422,0.635-1.69,2.115-2.063,2.541
		c-0.368,0.426-0.737,0.479-1.432,0.158c-0.636-0.316-2.755-1.01-5.244-3.23c-1.906-1.748-3.229-3.867-3.599-4.502
		c-0.373-0.637-0.055-1.006,0.264-1.324c0.318-0.264,0.638-0.74,0.953-1.111c0.318-0.372,0.425-0.638,0.636-1.06
		c0.214-0.425,0.106-0.794-0.052-1.113C43.962,41.634,42.64,38.404,42.11,37.132z"/>
	<path fill="#129E0D" d="M48.424,20.777c-14.615,0-26.479,11.863-26.479,26.533c0,5.028,1.377,9.694,3.813,13.668L20.99,75.223
		l14.672-4.714c3.813,2.118,8.154,3.284,12.814,3.284c14.617,0,26.533-11.863,26.533-26.534
		C75.01,32.589,63.094,20.777,48.424,20.777z M48.424,69.609c-4.502,0-8.736-1.381-12.287-3.709l-8.526,2.754l2.808-8.262
		c-2.647-3.654-4.236-8.211-4.236-13.083c0-12.288,10.008-22.296,22.297-22.296c12.234,0,22.243,10.009,22.243,22.296
		C70.721,59.598,60.711,69.609,48.424,69.609z"/>
	<path fill="#129E0D" d="M42.376,36.823c-0.53-1.325-1.062-1.06-1.481-1.06c-0.426,0-0.795-0.052-1.273-0.052
		c-0.477,0-1.109,0.159-1.747,0.792c-0.636,0.638-2.276,2.225-2.276,5.403c0,3.178,2.33,6.301,2.647,6.727s4.503,7.203,11.125,9.801
		c6.67,2.594,6.67,1.744,7.838,1.645c1.164-0.104,3.861-1.594,4.396-3.072c0.527-1.531,0.527-2.811,0.371-3.066
		c-0.158-0.271-0.586-0.43-1.271-0.74c-0.635-0.32-3.867-1.91-4.451-2.119c-0.582-0.213-1.004-0.318-1.482,0.318
		c-0.422,0.635-1.689,2.111-2.063,2.541c-0.369,0.426-0.74,0.479-1.432,0.154c-0.635-0.313-2.756-1.008-5.244-3.229
		c-1.906-1.748-3.229-3.868-3.599-4.503c-0.373-0.637-0.054-1.005,0.264-1.325c0.318-0.263,0.638-0.74,0.953-1.11
		c0.318-0.372,0.425-0.638,0.636-1.06c0.214-0.424,0.106-0.793-0.052-1.113C44.229,41.325,42.906,38.094,42.376,36.823z"/>
</g>
<g id="DO_NOT_EDIT_-_FOCAL_ZONE_GUIDES_ONLY">
</g>
</svg>
