<?xml version="1.0"?>
<!-- Converted with SVG Converter - Version 0.9.5 (Compiled Mon May 30 09:08:51 2011) - Copyright (C) 2011 Nokia -->
<svg xmlns="http://www.w3.org/2000/svg" width="96px" x="0px" version="1.1" y="0px" height="96px" viewBox="0 0 96 96" xmlns:xlink="http://www.w3.org/1999/xlink" baseProfile="tiny" id="Layer_1" xml:space="preserve">
 <g display="none" id="DO_NOT_EDIT_-_BOUNDING_BOX">
  <rect width="96" fill="none" display="inline" height="96" id="BOUNDING_BOX"/>
 </g>
 <g id="DO_NOT_EDIT_-_SHADOW">
  <path stroke-opacity="0.4" fill-opacity="0.4" id="SHADOW" d="M88.023,49c0,29.633-10.364,40-40,40c-29.635,0-40-10.367-40-40&#xd;&#xa;&#x9;&#x9;c0-29.634,10.366-40,40-40C77.659,9,88.023,19.365,88.023,49z"/>
 </g>
 <g id="Red_BACKGROUNDS">
  <g id="Red">
   <linearGradient gradientTransform="matrix(1 0 0 1 -33.4395 -1393.7813)" id="Red_2_" y1="1401.791" x1="81.4395" y2="1481.7705" gradientUnits="userSpaceOnUse" x2="81.4395">
    <stop offset="0" style="stop-color:#C80200"/>
    <stop offset="0.4182" style="stop-color:#780200"/>
    <stop offset="0.6364" style="stop-color:#780200"/>
    <stop offset="1" style="stop-color:#B40400"/>
   </linearGradient>
   <path fill="url(#Red_2_)" id="Red_1_" d="M8,47.989c0,29.633,10.365,40,40,40c29.637,0,40-10.367,40-40&#xd;&#xa;&#x9;&#x9;&#x9;c0-28.985-9.926-39.53-38.091-39.979h-3.817C17.928,8.459,8,19.004,8,47.989z"/>
   <linearGradient gradientTransform="matrix(1 0 0 1 -33.4395 -1393.7813)" id="HIGHLIGHT_GR3_1_" y1="1401.7813" x1="81.4395" y2="1481.7813" gradientUnits="userSpaceOnUse" x2="81.4395">
    <stop offset="0" style="stop-color:#C80200"/>
    <stop offset="0.4182" style="stop-color:#640200"/>
    <stop offset="0.6364" style="stop-color:#640200"/>
    <stop offset="1" style="stop-color:#B40400"/>
   </linearGradient>
   <path fill="url(#HIGHLIGHT_GR3_1_)" id="HIGHLIGHT_GR3" d="M48,8C18.365,8,8,18.365,8,48c0,29.633,10.365,40,40,40&#xd;&#xa;&#x9;&#x9;&#x9;c29.637,0,40-10.367,40-40C88,18.365,77.637,8,48,8z M48,87.023C18.842,87.023,9,77.176,9,48S18.842,8.977,48,8.977&#xd;&#xa;&#x9;&#x9;&#x9;S87,18.824,87,48S77.158,87.023,48,87.023z"/>
  </g>
 </g>
 <g id="PLACE_YOUR_GRAPHIC_HERE">
  <path stroke-opacity="0.5" fill-opacity="0.5" d="M48.693,20.769c-14.613,0-26.479,12.001-26.479,26.841&#xd;&#xa;&#x9;&#x9;c0,5.085,1.377,9.806,3.813,13.828l-4.768,14.41l14.672-4.769c3.813,2.144,8.153,3.321,12.814,3.321&#xd;&#xa;&#x9;&#x9;c14.614,0,26.53-12,26.53-26.842C75.279,32.718,63.363,20.769,48.693,20.769z M48.693,70.17c-4.501,0-8.734-1.398-12.285-3.753&#xd;&#xa;&#x9;&#x9;l-8.527,2.785l2.809-8.356c-2.646-3.697-4.236-8.307-4.236-13.236c0-12.432,10.008-22.556,22.298-22.556&#xd;&#xa;&#x9;&#x9;c12.232,0,22.242,10.125,22.242,22.556C70.991,60.041,60.98,70.17,48.693,70.17z"/>
  <path stroke-opacity="0.5" fill-opacity="0.5" d="M41.541,37.131c-0.529-1.325-1.063-1.06-1.48-1.06&#xd;&#xa;&#x9;&#x9;c-0.426,0-0.795-0.052-1.273-0.052c-0.477,0-1.109,0.159-1.747,0.792c-0.636,0.638-2.276,2.225-2.276,5.403&#xd;&#xa;&#x9;&#x9;c0,3.177,2.33,6.304,2.647,6.728c0.317,0.427,4.503,7.205,11.124,9.802c6.67,2.594,6.67,1.743,7.838,1.643&#xd;&#xa;&#x9;&#x9;c1.164-0.104,3.86-1.592,4.396-3.071c0.531-1.53,0.531-2.81,0.371-3.067c-0.158-0.271-0.586-0.427-1.271-0.74&#xd;&#xa;&#x9;&#x9;c-0.636-0.317-3.867-1.909-4.451-2.118c-0.582-0.214-1.004-0.315-1.481,0.317c-0.422,0.635-1.689,2.114-2.063,2.541&#xd;&#xa;&#x9;&#x9;c-0.369,0.426-0.738,0.479-1.434,0.157c-0.635-0.315-2.753-1.01-5.241-3.229c-1.906-1.748-3.229-3.868-3.599-4.502&#xd;&#xa;&#x9;&#x9;c-0.373-0.637-0.055-1.006,0.264-1.324c0.318-0.264,0.638-0.74,0.953-1.111c0.318-0.372,0.425-0.638,0.636-1.06&#xd;&#xa;&#x9;&#x9;c0.214-0.425,0.106-0.794-0.052-1.113C43.393,41.633,42.071,38.403,41.541,37.131z"/>
  <path fill="#FFFFFF" d="M48.424,20.777c-14.615,0-26.479,11.863-26.479,26.533c0,5.028,1.377,9.694,3.813,13.668L20.99,75.223&#xd;&#xa;&#x9;&#x9;l14.672-4.714c3.813,2.118,8.154,3.284,12.814,3.284c14.617,0,26.533-11.863,26.533-26.534&#xd;&#xa;&#x9;&#x9;C75.01,32.589,63.094,20.777,48.424,20.777z M48.424,69.609c-4.502,0-8.736-1.381-12.287-3.709l-8.526,2.754l2.808-8.262&#xd;&#xa;&#x9;&#x9;c-2.647-3.654-4.236-8.211-4.236-13.083c0-12.288,10.008-22.296,22.297-22.296c12.234,0,22.243,10.009,22.243,22.296&#xd;&#xa;&#x9;&#x9;C70.721,59.598,60.711,69.609,48.424,69.609z"/>
  <path fill="#FFFFFF" d="M41.812,36.823c-0.53-1.325-1.062-1.06-1.481-1.06c-0.426,0-0.795-0.052-1.273-0.052&#xd;&#xa;&#x9;&#x9;c-0.477,0-1.109,0.159-1.747,0.792c-0.636,0.638-2.276,2.225-2.276,5.403c0,3.178,2.33,6.302,2.647,6.727&#xd;&#xa;&#x9;&#x9;c0.317,0.426,4.503,7.203,11.123,9.801c6.67,2.594,6.67,1.744,7.838,1.645c1.164-0.104,3.861-1.594,4.396-3.072&#xd;&#xa;&#x9;&#x9;c0.529-1.531,0.529-2.811,0.371-3.066c-0.158-0.271-0.586-0.43-1.271-0.74c-0.635-0.32-3.867-1.91-4.451-2.119&#xd;&#xa;&#x9;&#x9;c-0.582-0.213-1.004-0.318-1.48,0.318c-0.422,0.635-1.689,2.111-2.063,2.541c-0.369,0.426-0.74,0.479-1.433,0.154&#xd;&#xa;&#x9;&#x9;c-0.635-0.313-2.754-1.008-5.242-3.229c-1.906-1.748-3.229-3.868-3.599-4.503c-0.373-0.637-0.054-1.005,0.264-1.325&#xd;&#xa;&#x9;&#x9;c0.318-0.263,0.638-0.74,0.953-1.11c0.318-0.372,0.425-0.638,0.636-1.06c0.214-0.424,0.106-0.793-0.052-1.113&#xd;&#xa;&#x9;&#x9;C43.664,41.325,42.341,38.094,41.812,36.823z"/>
 </g>
 <g id="DO_NOT_EDIT_-_FOCAL_ZONE_GUIDES_ONLY"/>
</svg>
