<?xml version="1.0" encoding="utf-8"?>
<!-- Generator: Adobe Illustrator 15.0.0, SVG Export Plug-In . SVG Version: 6.00 Build 0)  -->
<!DOCTYPE svg PUBLIC "-//W3C//DTD SVG 1.1//EN" "http://www.w3.org/Graphics/SVG/1.1/DTD/svg11.dtd">
<svg version="1.1" id="Layer_1" xmlns="http://www.w3.org/2000/svg" xmlns:xlink="http://www.w3.org/1999/xlink" x="0px" y="0px"
	 width="96px" height="96px" viewBox="0 0 96 96" enable-background="new 0 0 96 96" xml:space="preserve">
<g id="DO_NOT_EDIT_-_BOUNDING_BOX">
	<rect id="BOUNDING_BOX" fill="none" width="96" height="96"/>
</g>
<g id="DO_NOT_EDIT_-_SHADOW">
	<path id="SHADOW" opacity="0.4" enable-background="new    " d="M88.023,49c0,29.633-10.364,40-40,40c-29.635,0-40-10.367-40-40
		c0-29.634,10.366-40,40-40C77.659,9,88.023,19.365,88.023,49z"/>
</g>
<g id="White_BACKGROUNDS">
	<g id="White">
		
			<linearGradient id="White_2_" gradientUnits="userSpaceOnUse" x1="89.7988" y1="-1281.7363" x2="89.7988" y2="-1361.7158" gradientTransform="matrix(1 0 0 -1 -41.7993 -1273.7266)">
			<stop  offset="0" style="stop-color:#FFFFFF"/>
			<stop  offset="0.4424" style="stop-color:#F0F0F0"/>
			<stop  offset="0.6364" style="stop-color:#F0F0F0"/>
			<stop  offset="1" style="stop-color:#FFFFFF"/>
		</linearGradient>
		<path id="White_1_" fill="url(#White_2_)" d="M8,47.989c0,29.633,10.365,40,40,40c29.637,0,40-10.367,40-40
			c0-28.985-9.926-39.53-38.091-39.979h-3.817C17.928,8.459,8,19.004,8,47.989z"/>
		
			<linearGradient id="HIGHLIGHT_GR3_1_" gradientUnits="userSpaceOnUse" x1="89.7988" y1="-1281.7266" x2="89.7988" y2="-1361.7266" gradientTransform="matrix(1 0 0 -1 -41.7993 -1273.7266)">
			<stop  offset="0" style="stop-color:#FFFFFF"/>
			<stop  offset="0.4424" style="stop-color:#F0F0F0"/>
			<stop  offset="0.6364" style="stop-color:#F0F0F0"/>
			<stop  offset="1" style="stop-color:#FFFFFF"/>
		</linearGradient>
		<path id="HIGHLIGHT_GR3" opacity="0.25" fill="url(#HIGHLIGHT_GR3_1_)" enable-background="new    " d="M48,8
			C18.365,8,8,18.365,8,48c0,29.633,10.365,40,40,40c29.637,0,40-10.367,40-40C88,18.365,77.637,8,48,8z M48,87.023
			C18.842,87.023,9,77.176,9,48S18.842,8.977,48,8.977S87,18.824,87,48S77.158,87.023,48,87.023z"/>
	</g>
</g>
<g id="PLACE_YOUR_GRAPHIC_HERE">
	<path opacity="0.5" d="M48.423,20.767c-14.615,0-26.479,11.908-26.479,26.635c0,5.045,1.377,9.73,3.813,13.719l-4.767,14.3
		l14.672-4.733c3.813,2.129,8.155,3.299,12.814,3.299c14.618,0,26.534-11.911,26.534-26.636
		C75.01,32.624,63.094,20.767,48.423,20.767z M48.423,69.786c-4.502,0-8.736-1.386-12.286-3.724l-8.527,2.765l2.808-8.294
		c-2.647-3.666-4.236-8.239-4.236-13.133c0-12.334,10.009-22.381,22.297-22.381c12.235,0,22.243,10.048,22.243,22.381
		C70.721,59.736,60.711,69.786,48.423,69.786z"/>
	<path fill="#FFFFFF" d="M48.424,20.774c-14.615,0-26.479,11.864-26.479,26.535c0,5.028,1.377,9.694,3.813,13.669L20.99,75.223
		l14.672-4.715c3.813,2.119,8.155,3.285,12.814,3.285c14.617,0,26.533-11.864,26.533-26.536
		C75.01,32.586,63.094,20.774,48.424,20.774z M48.424,69.609c-4.502,0-8.736-1.381-12.286-3.71l-8.527,2.755l2.808-8.263
		c-2.647-3.654-4.236-8.209-4.236-13.084c0-12.289,10.009-22.297,22.297-22.297c12.234,0,22.242,10.009,22.242,22.297
		C70.721,59.597,60.711,69.609,48.424,69.609z"/>
	
		<linearGradient id="SVGID_1_" gradientUnits="userSpaceOnUse" x1="-164.4629" y1="-137.3491" x2="-164.4629" y2="-183.2104" gradientTransform="matrix(1 0 0 -1 212.6748 -112.7109)">
		<stop  offset="0" style="stop-color:#6CD94E"/>
		<stop  offset="0.5153" style="stop-color:#1D9E11"/>
		<stop  offset="1" style="stop-color:#6CD94E"/>
	</linearGradient>
	<path fill="url(#SVGID_1_)" d="M48.212,24.358c-12.405,0-22.509,10.388-22.509,23.142c0,5.06,1.605,9.731,4.277,13.579l-2.78,8.575
		l8.662-2.858c3.528,2.416,7.806,3.846,12.401,3.846c12.353,0,22.457-10.385,22.457-23.141
		C70.721,34.747,60.616,24.358,48.212,24.358z"/>
	<path fill="#FFFFFF" d="M41.544,36.823c-0.531-1.325-1.061-1.06-1.482-1.06c-0.426,0-0.795-0.052-1.273-0.052
		c-0.477,0-1.11,0.159-1.747,0.792c-0.636,0.638-2.277,2.225-2.277,5.403c0,3.178,2.33,6.302,2.648,6.727
		c0.318,0.426,4.503,7.205,11.124,9.801c6.67,2.594,6.67,1.744,7.838,1.641c1.164-0.104,3.861-1.59,4.395-3.072
		c0.531-1.533,0.531-2.807,0.371-3.07c-0.158-0.268-0.586-0.424-1.271-0.738c-0.635-0.32-3.867-1.912-4.451-2.121
		c-0.582-0.213-1.004-0.316-1.482,0.318c-0.422,0.635-1.691,2.117-2.063,2.541c-0.369,0.428-0.74,0.479-1.432,0.16
		c-0.635-0.316-2.754-1.01-5.243-3.232c-1.906-1.748-3.229-3.867-3.599-4.502c-0.373-0.637-0.053-1.005,0.264-1.325
		c0.318-0.263,0.638-0.74,0.953-1.11c0.318-0.372,0.425-0.638,0.636-1.06c0.214-0.424,0.106-0.793-0.052-1.113
		C43.397,41.325,42.074,38.095,41.544,36.823z"/>
</g>
<g id="DO_NOT_EDIT_-_FOCAL_ZONE_GUIDES_ONLY">
</g>
</svg>
